<svg version="1.1" id="Layer_1" xmlns="http://www.w3.org/2000/svg" xmlns:xlink="http://www.w3.org/1999/xlink" x="0px" y="0px"
	 width="100%" viewBox="0 0 612 408" enable-background="new 0 0 612 408" xml:space="preserve">
<path fill="#121212" opacity="1.000000" stroke="none" 
	d="
M345.000000,409.000000 
	C231.361053,409.000000 118.222084,408.983673 5.083221,409.082520 
	C1.841632,409.085358 0.891863,408.679810 0.895217,405.085022 
	C1.019571,271.784454 1.021768,138.483734 0.889214,5.183185 
	C0.885448,1.396030 1.888508,0.916545 5.314881,0.918107 
	C206.432251,1.009755 407.549652,1.009009 608.666992,0.923145 
	C612.038025,0.921706 613.118774,1.324469 613.114807,5.165074 
	C612.977173,138.465607 612.980957,271.766327 613.102783,405.066895 
	C613.106018,408.624542 612.215332,409.089844 608.934875,409.085815 
	C521.123352,408.977997 433.311676,409.000000 345.000000,409.000000 
z"/>
<path fill="#1127BC" opacity="1.000000" stroke="none" 
	d="
M58.138199,210.976364 
	C57.872650,211.453674 57.929443,211.513229 57.888298,211.513641 
	C57.911846,212.870697 58.380867,213.895401 60.226440,214.043640 
	C60.531628,214.046661 60.502357,214.059036 60.487381,214.053741 
	C60.813080,213.897690 61.153770,213.746948 61.999542,213.835251 
	C62.504642,214.074310 62.491039,214.053162 62.479149,214.049088 
	C66.362961,214.995529 70.316910,214.308090 74.646286,214.344025 
	C76.480278,214.179550 77.908875,214.134781 79.747284,213.961456 
	C80.120895,209.472549 80.597946,205.125076 80.457489,200.349960 
	C80.439377,198.799423 80.449036,197.661728 80.406052,195.672180 
	C80.505753,191.484177 80.348663,188.143433 80.501152,184.401855 
	C79.903763,176.230270 80.915115,168.455444 80.439407,160.244629 
	C80.603279,159.520996 80.703629,159.241699 81.229088,158.837158 
	C82.212601,158.915924 82.654915,159.264694 83.133110,160.149353 
	C84.603226,165.281830 83.868088,170.142029 84.045723,174.953537 
	C84.107170,176.617950 83.999794,178.290298 84.149696,179.950439 
	C84.827530,187.457672 85.038300,187.508438 92.333656,188.692093 
	C95.567192,189.216721 99.005981,189.367615 101.814743,191.484955 
	C105.038002,193.914780 105.859543,192.099289 105.909050,189.110764 
	C106.038612,181.288681 107.168915,173.525391 107.270912,165.293518 
	C106.941475,161.927200 106.803154,159.035889 110.221199,157.107574 
	C110.703857,164.479416 110.750999,171.897156 110.800850,179.801620 
	C110.259300,189.728867 110.543762,199.176132 110.622696,208.620148 
	C110.642174,210.950546 110.563438,213.259140 109.911972,215.838379 
	C102.458008,223.752670 94.010918,229.973358 86.989822,237.588242 
	C83.036377,241.875992 78.413094,241.045212 73.890457,241.400314 
	C69.472610,241.747208 64.988243,241.130569 60.538727,241.219620 
	C54.846634,241.333557 51.940704,236.805710 48.369190,233.790115 
	C42.095032,228.492538 36.901611,221.983505 30.433889,216.828217 
	C28.862812,215.575928 28.246723,205.202698 29.601402,203.826569 
	C31.266653,202.134949 33.393860,203.511627 35.742165,203.225479 
	C36.376537,203.275314 36.554726,203.317474 36.980297,203.240295 
	C37.227676,203.120956 37.375992,203.027496 37.457985,203.058487 
	C37.861023,202.925064 38.182079,202.760666 38.983730,202.844727 
	C39.464340,203.093216 39.578976,203.031967 39.628204,203.074402 
	C40.331169,203.377838 40.994953,203.545273 42.029617,203.226822 
	C42.359833,203.119736 42.439438,203.038712 42.488007,203.068146 
	C42.857742,202.930481 43.178883,202.763351 43.981789,202.846893 
	C44.696804,203.014145 44.936550,202.986130 45.360298,203.054688 
	C45.858688,202.929321 46.179531,202.762772 46.981911,202.845581 
	C47.463432,203.094940 47.568459,203.036163 47.613213,203.076385 
	C49.518909,203.808884 51.446564,203.409790 53.685837,203.347473 
	C54.844570,202.939667 55.654350,202.242432 56.756554,203.285919 
	C57.760189,204.754013 57.680374,206.284698 57.895912,208.119217 
	C57.946907,208.720078 57.977634,208.953751 57.911701,209.369385 
	C58.050709,209.862061 58.227230,210.180557 58.138199,210.976364 
z"/>
<path fill="#162ECA" opacity="1.000000" stroke="none" 
	d="
M539.165894,163.917206 
	C543.778503,170.169785 543.435120,177.127045 543.272400,184.326019 
	C543.144287,189.991714 542.059937,194.988754 539.099609,199.705872 
	C534.264648,207.410080 527.768982,212.858215 518.346436,214.999786 
	C517.672058,215.521942 517.289124,215.844757 516.454285,216.168304 
	C515.584106,216.321762 515.081909,216.313675 514.219849,216.153748 
	C512.075867,215.291946 510.541107,214.120163 508.687714,212.791077 
	C504.096741,206.989578 499.524902,201.643661 494.519714,196.674820 
	C493.257385,195.421707 491.668060,194.404144 491.321381,192.115784 
	C491.356293,191.191010 491.065308,190.417984 492.359680,190.815430 
	C495.445801,189.908386 498.464050,190.791565 501.838531,190.377686 
	C505.748230,189.798462 509.488007,189.959549 512.629333,188.666641 
	C517.889526,186.501648 518.494629,175.843857 513.727661,172.257950 
	C512.400146,171.259323 511.109528,169.622650 508.666748,169.903641 
	C508.041504,170.081406 507.778198,170.242584 507.126953,170.150909 
	C506.739014,169.898026 506.351532,169.781006 506.157654,169.723053 
	C502.912109,169.316681 499.851135,169.563416 496.416840,169.582001 
	C496.039001,169.642242 495.633606,169.753708 495.433350,169.817688 
	C494.989655,170.055695 494.746185,170.229721 494.136292,170.144379 
	C493.427795,169.856644 493.085663,169.828293 492.488678,169.842010 
	C491.989471,170.057312 491.745117,170.230530 491.133789,170.144531 
	C490.766846,169.885300 490.363251,169.754333 490.159973,169.693695 
	C489.533600,169.545624 489.105957,169.511978 488.356079,169.578094 
	C488.037689,169.631668 487.633118,169.753311 487.432373,169.819000 
	C486.987885,170.057709 486.744171,170.230728 486.134583,170.144608 
	C485.768707,169.885452 485.345184,169.753860 485.131897,169.693253 
	C482.539825,169.362579 480.154053,169.541275 477.417603,169.574631 
	C477.063782,169.628113 476.644684,169.749939 476.436951,169.816742 
	C475.985962,170.056961 475.742676,170.230362 475.133850,170.144562 
	C474.768280,169.885345 474.346985,169.754486 474.134735,169.694427 
	C469.952545,168.996429 465.866089,170.280029 461.860718,168.492615 
	C463.182404,165.918671 465.423035,165.974213 467.580414,165.964249 
	C480.571106,165.904205 493.561920,165.911087 506.552765,165.956894 
	C512.141541,165.976608 517.032166,169.076752 522.610413,169.365616 
	C526.649475,169.574768 530.495605,168.572769 534.453125,168.406219 
	C537.175293,168.291641 537.175964,165.309402 539.165894,163.917206 
z"/>
<path fill="#142ECF" opacity="1.000000" stroke="none" 
	d="
M448.696899,213.725983 
	C449.057465,214.161255 449.205658,214.336456 449.397217,214.853180 
	C450.548218,221.794189 453.532013,227.744629 455.892975,233.912949 
	C457.798370,238.890976 457.137268,239.895370 451.996887,239.992035 
	C446.189880,240.101227 440.370270,239.761902 434.578979,240.076614 
	C430.912170,240.275864 429.000183,238.569855 427.781647,235.545807 
	C425.005524,228.656174 422.804657,221.552628 420.245605,214.582565 
	C419.299164,212.004639 417.245453,209.736618 417.131958,206.443604 
	C416.838684,206.139832 416.792969,206.094070 416.806763,206.064819 
	C416.182770,204.833847 416.120361,203.490616 415.835022,202.196609 
	C415.123444,198.969543 411.217377,195.177628 414.215668,192.687531 
	C419.168976,188.573700 424.457581,184.014160 431.771790,184.372940 
	C435.055603,184.534042 436.691711,186.809647 438.190277,189.272293 
	C440.878143,193.689285 442.228241,198.700882 444.651428,203.642365 
	C444.885651,203.944550 445.045776,204.037170 445.019135,204.125732 
	C445.299957,204.551590 445.536591,204.931900 445.756805,205.694153 
	C445.915344,208.790085 447.458801,211.035431 448.696899,213.725983 
z"/>
<path fill="#1D2BA9" opacity="1.000000" stroke="none" 
	d="
M236.667572,182.515930 
	C236.957230,189.913055 237.120605,196.998108 237.011978,204.476990 
	C236.181458,206.809372 236.795547,208.835861 236.158417,211.181000 
	C237.467209,213.438705 237.833847,215.095352 234.832306,216.246643 
	C234.223221,216.353012 233.952560,216.406784 233.289612,216.325943 
	C232.134949,212.671478 233.162201,209.210175 233.251328,205.320023 
	C232.542206,200.163193 233.156143,195.348022 232.605164,190.565552 
	C232.274857,187.698425 231.268219,186.286514 228.228592,186.727341 
	C224.144119,187.319687 220.001511,187.328720 215.893723,187.704971 
	C211.428909,188.113953 209.618134,189.802582 210.030670,194.180405 
	C210.168823,195.646332 210.141846,197.174164 209.639740,198.602936 
	C209.002960,200.414902 208.201782,202.069702 205.431915,200.921539 
	C203.570114,198.588135 203.935318,196.181381 203.894440,193.881363 
	C203.808624,189.050125 203.896927,184.216827 203.854813,179.384766 
	C203.796585,172.702911 203.333527,172.200317 196.804520,172.152847 
	C187.973343,172.088638 179.141586,172.156433 170.310135,172.122147 
	C167.978592,172.113098 165.628983,172.189301 163.074341,170.803757 
	C160.846024,168.748337 160.936981,166.406937 160.907776,164.120026 
	C160.828384,157.903000 160.900864,151.684799 160.765961,144.996185 
	C161.589447,144.054382 162.428253,143.584290 163.561920,143.157959 
	C173.656342,143.965500 183.471725,143.096344 193.696320,143.486877 
	C196.108994,146.003586 193.622391,146.612228 192.318573,146.633850 
	C187.012985,146.721786 186.760452,150.239609 186.803513,154.088394 
	C186.816422,155.242599 186.922089,156.396255 186.911530,157.552643 
	C186.835251,165.907516 186.835587,165.961761 195.050568,165.906403 
	C197.697861,165.888565 200.304993,166.278488 203.352463,166.242355 
	C213.918365,167.792816 224.266830,165.751373 234.795914,168.006821 
	C236.871979,169.039108 236.499710,170.677094 236.747986,172.521057 
	C236.784897,173.769775 236.795883,174.578171 236.801208,175.790833 
	C236.195694,178.176193 236.600449,180.199829 236.667572,182.515930 
z"/>
<path fill="#0D1FAC" opacity="1.000000" stroke="none" 
	d="
M308.835083,213.774414 
	C309.901489,214.074478 310.633270,214.196350 311.720459,214.426071 
	C314.855072,217.773285 312.737427,221.508102 312.979645,224.979370 
	C313.293945,229.483871 312.795715,234.052277 312.339539,238.880112 
	C311.930145,239.316788 311.778778,239.464676 311.388428,239.821518 
	C310.933258,240.154892 310.717072,240.279312 310.176788,240.216751 
	C309.852692,240.029770 309.498413,239.893661 309.321564,239.962524 
	C308.930389,240.155518 308.716095,240.279633 308.180786,240.216797 
	C305.891632,239.954208 303.923523,239.878586 301.546387,239.916962 
	C300.924988,240.155243 300.712585,240.279510 300.181488,240.217499 
	C296.585480,239.952148 293.308136,239.873047 289.593750,239.891373 
	C288.974548,240.115753 288.792419,240.242706 288.315857,240.214050 
	C288.021393,240.058472 287.950195,240.045914 287.953064,240.009888 
	C285.473175,238.157135 281.968567,239.700012 279.299988,237.249969 
	C278.979004,237.061157 278.971191,237.030563 278.956848,237.037170 
	C277.261444,235.271332 275.713348,233.344330 273.178772,232.053680 
	C266.378479,228.001770 261.623260,222.105606 256.028595,217.173447 
	C254.851059,216.135376 254.189621,214.879135 253.385284,213.265091 
	C253.578400,209.043106 253.571030,205.139114 253.155914,200.841217 
	C253.008347,200.447678 253.067780,200.476929 253.056274,200.507996 
	C252.895248,200.192703 252.745743,199.846344 252.820648,198.980560 
	C253.045074,198.461105 253.068390,198.524490 253.038147,198.539520 
	C253.418503,197.608856 253.546997,196.612915 253.680771,195.240570 
	C254.066284,194.809219 254.306610,194.729324 254.912109,194.754150 
	C255.655701,195.189667 255.966415,195.573730 256.292358,196.372360 
	C257.353455,200.271790 256.716736,203.939224 257.185425,207.531967 
	C257.568054,210.465134 258.739319,212.312271 261.998047,212.708664 
	C267.841522,213.419434 273.644104,214.730148 279.828735,212.796295 
	C280.374023,212.566559 280.602417,212.498230 281.188904,212.422424 
	C282.293610,212.559509 282.734467,213.158295 283.521057,213.855499 
	C283.941193,214.110916 284.129486,214.098709 284.593811,214.023773 
	C285.079132,213.839462 285.288452,213.717850 285.811157,213.779694 
	C286.274933,214.068115 286.425323,214.173080 286.824768,214.394958 
	C288.468140,215.141617 289.897675,215.110748 291.629578,214.610062 
	C295.592651,214.369537 299.271515,214.258423 303.394775,214.050461 
	C304.059814,213.834503 304.280457,213.715393 304.832397,213.774231 
	C305.834442,214.012161 306.505157,214.072144 307.503723,214.042603 
	C308.054535,213.834106 308.277527,213.715164 308.835083,213.774414 
z"/>
<path fill="#1628AF" opacity="1.000000" stroke="none" 
	d="
M398.124878,204.001953 
	C398.488983,210.753769 394.585327,215.930298 392.609100,221.687500 
	C390.603668,227.529694 389.172638,233.721588 385.265289,239.171387 
	C384.359467,241.146072 382.732147,240.622269 381.599152,240.581940 
	C372.819092,240.269257 364.036682,240.824814 354.843384,240.178741 
	C351.914337,235.802963 355.033997,231.956863 356.448761,229.150726 
	C359.474091,223.150162 361.230743,216.728104 363.771515,210.614105 
	C365.476471,206.511292 367.087585,202.234833 368.570160,197.974640 
	C371.571930,189.349045 375.151611,180.924606 378.796722,172.228912 
	C381.782288,173.112091 380.683563,175.238235 380.281219,176.949539 
	C379.681152,179.502029 378.680115,181.953918 377.553619,184.731674 
	C375.960297,189.121567 374.823639,193.289597 373.027893,197.213455 
	C372.229248,198.958557 372.018127,200.478516 373.074097,202.341934 
	C374.849304,205.474518 373.285919,206.948944 369.898193,207.147156 
	C372.101593,207.898712 373.803711,207.229782 375.574554,206.084396 
	C377.827301,204.627304 379.681824,204.650467 381.181946,207.569870 
	C383.815521,212.695251 389.082062,212.907532 392.690399,208.345947 
	C394.149750,206.501038 394.710297,203.581833 398.124878,204.001953 
z"/>
<path fill="#4659E7" opacity="1.000000" stroke="none" 
	d="
M461.036835,159.229309 
	C460.610138,158.166214 460.445007,157.455246 460.099487,156.423355 
	C459.811493,155.900986 459.703888,155.699509 459.756836,155.195404 
	C460.068298,154.487396 460.219238,154.082047 460.412170,153.348648 
	C460.441467,152.844696 460.428680,152.668777 460.425232,152.228424 
	C460.374664,151.804703 460.314667,151.645401 460.077026,151.302765 
	C459.798309,150.912857 459.697296,150.706314 459.746704,150.189392 
	C460.043243,148.581390 460.189301,147.283752 460.375000,145.592316 
	C460.414642,145.198547 460.382812,144.768448 460.574860,144.678818 
	C460.766907,144.589188 461.088898,144.333511 461.138916,144.115112 
	C461.294312,143.588211 461.475677,143.333603 461.980408,143.101868 
	C462.227783,143.070816 462.669769,143.212234 462.890320,143.284271 
	C463.850525,143.542542 464.601349,143.503998 465.625458,143.399490 
	C470.324768,143.263626 474.750671,143.196014 479.643066,143.046661 
	C480.279022,142.834579 480.448425,142.704269 480.931213,142.640106 
	C481.863525,142.900986 482.493927,142.963654 483.447205,142.788727 
	C483.965668,142.661835 484.174774,142.617783 484.636658,142.770813 
	C487.328613,143.021378 489.767792,143.074860 492.657776,143.047318 
	C493.275879,142.837357 493.443115,142.708420 493.924011,142.622040 
	C494.864624,142.771927 495.496552,142.771179 496.442932,142.708557 
	C496.965637,142.637100 497.174805,142.608322 497.632538,142.775803 
	C501.292877,143.065598 504.704651,143.159149 508.573334,143.327896 
	C510.396301,144.214493 511.834564,144.029739 513.592224,143.757385 
	C514.123535,143.924194 514.345215,144.044922 514.944946,144.186127 
	C518.481323,146.428482 522.389771,147.064865 525.972595,149.156479 
	C526.303406,149.224304 526.477356,149.152222 526.561523,149.194534 
	C527.550232,151.362442 530.065918,151.772202 531.542603,153.835083 
	C531.815369,154.091217 531.916504,154.096283 531.908203,154.146210 
	C532.695129,154.804764 533.044189,156.062210 534.687012,155.861084 
	C535.279053,156.005630 535.556091,156.185349 535.780029,156.857574 
	C535.701233,160.270996 534.050171,162.035217 531.343811,161.305008 
	C523.248230,159.120697 515.214355,161.454620 507.163574,161.383057 
	C501.546661,161.333145 495.936432,160.794266 490.308472,161.004349 
	C481.729858,161.324585 473.181732,159.545670 464.578735,160.526505 
	C463.411987,160.659515 462.274536,160.304810 461.036835,159.229309 
z"/>
<path fill="#1327B3" opacity="1.000000" stroke="none" 
	d="
M444.895966,203.553345 
	C442.694489,204.382065 442.665466,202.717056 442.174652,201.313446 
	C440.823792,197.450378 440.036072,193.180084 436.748260,190.416290 
	C435.085449,189.018524 435.122101,185.687439 432.030762,186.039337 
	C428.248474,186.469894 424.479004,187.093979 421.432648,189.676025 
	C420.686249,190.308640 420.202393,191.701767 419.456818,191.814758 
	C412.142029,192.923264 415.002991,196.906799 416.645447,200.804504 
	C417.186920,202.089432 416.884949,203.729767 416.894623,205.621582 
	C413.477325,201.404358 412.206360,195.846375 409.997894,190.708862 
	C409.494812,189.538651 409.346985,188.220520 408.920929,187.010880 
	C408.576874,186.034042 407.778015,185.177490 406.772217,185.361572 
	C406.260803,185.455154 405.830200,186.547913 405.553040,187.262665 
	C404.603180,189.712021 403.737366,192.193954 402.487061,194.803101 
	C399.657257,194.146347 399.896881,192.325912 400.495667,190.018646 
	C402.972046,182.078064 407.814392,175.490311 409.482178,167.236420 
	C412.623749,159.479355 416.081329,152.237183 418.088562,144.052460 
	C418.309021,143.468460 418.439667,143.251053 418.888672,142.822449 
	C419.968384,142.494537 420.730438,142.430038 421.736115,142.880569 
	C426.318268,147.212067 425.701813,153.379105 428.471313,158.230392 
	C431.187286,162.987885 431.650574,168.985947 434.077942,173.963898 
	C438.099091,182.210358 439.444519,191.537033 444.639099,199.287949 
	C445.263916,200.220276 444.842651,201.853683 444.895966,203.553345 
z"/>
<path fill="#0E1CA2" opacity="1.000000" stroke="none" 
	d="
M282.034760,144.902451 
	C286.574158,143.569489 290.949524,144.651291 295.768677,144.185593 
	C300.731537,142.663391 305.405121,143.408722 309.934204,143.387787 
	C317.682526,143.351959 325.449768,143.271133 333.585083,143.779785 
	C333.898682,147.268967 331.261169,146.799622 329.315399,146.966232 
	C325.998535,147.250244 322.651611,147.137146 319.321869,147.066849 
	C315.851868,146.993622 313.992493,148.289963 314.072113,152.005875 
	C314.143433,155.334412 314.157837,158.675995 313.874420,161.999161 
	C313.683929,164.232193 314.562317,165.730820 316.808838,165.746368 
	C322.786255,165.787781 329.208771,167.651260 334.376587,162.073639 
	C335.278625,170.398605 334.562225,171.135315 325.909729,170.313812 
	C315.774139,169.351486 305.632599,170.375809 295.497528,170.046753 
	C291.946655,169.931458 288.391785,169.939163 284.369537,169.987152 
	C283.643402,170.211014 283.386444,170.338440 282.700684,170.417953 
	C282.042633,170.195190 281.813385,170.020355 281.378815,169.464355 
	C280.840149,161.981750 280.530640,154.880585 281.455017,147.368744 
	C281.547546,146.375732 281.653534,145.818359 282.034760,144.902451 
z"/>
<path fill="#3F4FD6" opacity="1.000000" stroke="none" 
	d="
M418.642059,142.937622 
	C418.990143,143.277481 419.141052,143.493073 419.173706,143.620544 
	C417.797882,146.268463 415.310333,145.967285 413.028351,146.014145 
	C407.534180,146.126999 402.035370,145.936813 396.542938,146.106049 
	C392.701660,146.224380 388.689972,151.562668 389.543793,155.183960 
	C389.988525,157.070175 391.700287,157.236038 393.053375,157.511734 
	C397.648193,158.447952 401.757080,160.779266 406.298798,161.886902 
	C408.620758,162.453217 411.336487,163.107056 411.224945,166.757080 
	C410.530029,175.455154 405.369598,182.010208 402.176666,189.702988 
	C399.470886,192.412994 396.680878,191.353775 394.176727,190.238358 
	C388.913757,187.894104 383.808990,185.226135 377.733093,186.902802 
	C376.955109,187.117523 376.180267,186.504440 375.891205,185.343079 
	C376.112793,180.587158 379.274780,177.001892 379.231384,172.312592 
	C379.144440,171.608856 379.188416,171.177109 379.277496,170.422913 
	C379.769165,169.440063 380.441681,168.924026 380.783081,167.823792 
	C381.521606,166.849792 381.717529,166.052597 381.332947,164.887390 
	C382.802063,157.331543 386.342346,150.746429 389.100494,143.505219 
	C392.478577,141.558945 395.845520,142.498779 399.028320,142.497330 
	C405.446869,142.494385 411.875519,142.211334 418.642059,142.937622 
z"/>
<path fill="#3045D9" opacity="1.000000" stroke="none" 
	d="
M460.608398,159.274811 
	C474.637787,157.483002 488.445435,159.385284 502.259613,159.424667 
	C509.263702,159.444656 516.518433,159.897156 523.588013,158.246811 
	C526.137817,157.651611 529.035950,157.230301 531.554749,159.615753 
	C533.556946,161.511932 534.130127,158.707764 535.464905,157.542053 
	C538.550171,158.254898 539.010559,160.951874 539.850464,163.512833 
	C539.420471,164.346909 539.045837,164.874786 539.148254,165.282974 
	C540.104065,169.092575 538.284485,170.239395 534.762329,170.730423 
	C527.673584,171.718643 520.610779,172.431534 513.822449,169.676361 
	C510.635437,168.382858 507.505951,167.942505 504.147247,167.952484 
	C490.363861,167.993469 476.580139,167.933762 462.318115,167.894852 
	C460.578857,168.504288 460.595947,167.227448 459.926208,166.449493 
	C459.947418,165.683456 460.144379,165.179321 460.398865,164.268127 
	C460.456390,163.861038 460.420959,163.480408 460.417969,163.289307 
	C460.423859,161.956284 460.432709,160.814346 460.608398,159.274811 
z"/>
<path fill="#2A3AC1" opacity="1.000000" stroke="none" 
	d="
M134.873596,215.136322 
	C131.472656,212.498856 134.573822,209.741791 134.292328,206.988388 
	C133.552261,199.749237 133.704926,192.418808 133.843964,184.998398 
	C139.581406,182.660599 144.926880,184.466583 150.211472,185.293488 
	C154.678467,185.992462 158.939102,186.539505 163.246216,184.004547 
	C165.567566,188.492096 163.706299,193.130600 164.993347,197.855072 
	C166.120529,202.736755 164.559677,207.306763 165.529419,212.197021 
	C165.694168,213.134140 165.717880,213.680038 165.493469,214.638199 
	C165.138092,215.254990 164.931854,215.464340 164.334900,215.888718 
	C154.401215,215.845261 144.813004,217.013245 134.873596,215.136322 
z"/>
<path fill="#5C69DB" opacity="1.000000" stroke="none" 
	d="
M134.234634,215.471741 
	C144.327393,213.116348 154.240814,213.907776 164.574463,214.899567 
	C168.366104,212.483810 172.122116,213.738693 176.170715,213.887115 
	C177.856812,214.762085 178.575043,215.960983 178.598618,217.304245 
	C178.725922,224.560837 179.243134,231.844879 177.224945,239.311325 
	C172.810608,240.498138 168.662384,239.809143 164.108154,240.032410 
	C163.075165,239.917007 162.501404,239.775757 161.536591,239.389175 
	C155.691757,236.879318 152.451477,231.823212 147.830551,228.420517 
	C142.852188,224.754654 138.606750,220.093445 134.234634,215.471741 
z"/>
<path fill="#283BC7" opacity="1.000000" stroke="none" 
	d="
M375.757690,185.253265 
	C376.627319,185.602097 377.570404,186.209503 378.190186,185.662262 
	C383.552277,180.928085 387.892456,185.735489 392.326813,187.400162 
	C395.258850,188.500854 398.081238,189.648682 401.600891,190.001099 
	C402.026123,191.474625 400.744110,192.874649 401.960449,194.666656 
	C401.979156,195.928894 401.823792,196.915085 401.326508,198.075745 
	C399.878784,199.479691 399.123047,200.877228 398.915955,202.888977 
	C398.862274,203.441742 398.817047,203.647705 398.545227,204.074493 
	C395.352753,205.065384 395.547913,208.152390 394.170837,210.079285 
	C391.190094,214.250320 382.536835,214.657257 379.087463,210.990402 
	C377.543457,209.349075 382.203278,206.800079 378.179474,206.556946 
	C376.787140,206.472824 376.033142,209.376251 373.741119,209.018204 
	C372.137268,208.767670 370.323608,209.353729 369.013275,208.064835 
	C368.502289,207.562210 368.095367,206.522110 368.246460,205.866302 
	C368.579620,204.420456 369.459991,205.635162 370.102783,205.740692 
	C371.123627,205.908264 372.174774,206.030045 372.546265,204.784912 
	C372.857605,203.741348 372.034241,203.282532 371.207397,203.075790 
	C368.756073,202.462906 369.185913,200.989777 369.905396,199.266190 
	C371.813019,194.696274 373.648438,190.096207 375.757690,185.253265 
z"/>
<path fill="#5562D7" opacity="1.000000" stroke="none" 
	d="
M234.563263,204.783249 
	C234.450180,208.501205 236.244553,212.182220 233.455612,215.647156 
	C233.048264,216.363968 232.741089,216.686234 232.395126,216.981400 
	C232.194366,217.152664 231.908508,217.197083 231.755356,217.431122 
	C232.054321,217.396881 232.352814,217.412262 232.896820,217.654480 
	C227.371353,223.403778 221.728729,229.093445 215.009399,233.616409 
	C212.528732,235.286240 210.618500,237.803543 208.044922,239.761841 
	C205.237198,238.041107 204.928650,235.628967 204.917786,233.070068 
	C204.894669,227.622375 204.792526,222.174606 205.029480,216.312958 
	C205.141602,215.640045 205.208450,215.381989 205.353378,214.745392 
	C205.500626,213.188705 206.021423,212.035156 205.460083,210.510529 
	C205.084854,209.733261 204.918579,209.261002 204.718689,208.382477 
	C204.551132,206.853287 204.789276,205.792038 205.664642,204.487671 
	C208.162994,202.541183 210.640533,201.896912 213.375290,201.937302 
	C220.425537,202.041367 227.445953,202.325928 234.563263,204.783249 
z"/>
<path fill="#0E28C8" opacity="1.000000" stroke="none" 
	d="
M312.495911,239.317291 
	C309.322632,231.216461 311.241119,223.258591 312.064880,214.917969 
	C312.781921,214.423065 313.487915,214.312195 314.528168,214.072723 
	C315.075012,213.828171 315.287659,213.712204 315.819763,213.769104 
	C316.139282,213.941971 316.505676,214.101532 316.686462,214.016479 
	C317.078552,213.819702 317.289795,213.707977 317.818298,213.763123 
	C320.426361,214.003998 322.717133,214.078018 325.423828,214.037674 
	C326.059937,213.814270 326.280090,213.705246 326.830475,213.759766 
	C327.568451,214.030884 327.976227,214.138458 328.698730,214.293335 
	C329.013519,214.340668 329.506256,214.415985 329.752991,214.380814 
	C331.017853,214.312088 332.036011,214.278534 333.435516,214.273865 
	C334.251312,214.466660 334.484863,214.772888 334.490723,215.566376 
	C334.507416,216.742493 334.473389,217.598053 334.645752,218.756714 
	C334.741119,219.062134 334.834839,219.368500 334.860962,219.526550 
	C335.059235,219.954224 335.231445,220.223846 335.147430,220.899200 
	C334.891174,221.304947 334.832581,221.651138 334.779358,221.818436 
	C334.678986,222.156891 334.631805,222.328033 334.656006,222.755753 
	C334.727417,223.012314 334.834778,223.348541 334.863647,223.522644 
	C335.062897,223.966446 335.233307,224.236160 335.147583,224.910126 
	C334.891479,225.314392 334.832153,225.668625 334.777161,225.839569 
	C334.321075,227.258377 334.570587,228.544754 334.490784,230.124298 
	C334.322357,231.429977 333.849670,232.394699 334.300110,233.718201 
	C334.505249,234.578232 334.496735,235.163406 334.493164,236.033508 
	C334.465454,236.506897 334.441833,236.694794 334.322540,237.149078 
	C334.161591,237.592300 334.096375,237.769119 333.924500,238.208069 
	C333.715546,238.629105 333.613312,238.788010 333.302368,239.138702 
	C332.924805,239.414627 332.755920,239.498749 332.309509,239.638153 
	C328.681213,239.719727 325.330505,239.746017 321.546387,239.913635 
	C320.909058,240.171219 320.705078,240.287491 320.195862,240.228119 
	C317.563843,239.856888 315.237061,239.661285 312.495911,239.317291 
z"/>
<path fill="#3A4FE1" opacity="1.000000" stroke="none" 
	d="
M82.391739,161.155518 
	C82.102318,160.411240 82.103004,160.007126 82.087036,159.300323 
	C79.850327,156.203476 81.614014,152.872620 80.719528,149.472961 
	C79.975929,147.400085 79.877785,145.733521 80.812286,143.716187 
	C90.327637,141.466599 99.675049,144.215408 109.021339,142.812805 
	C111.758514,142.402023 111.917961,145.814972 110.934189,149.043488 
	C110.722359,150.323288 110.743408,150.836502 110.722656,151.733154 
	C110.680840,152.116623 110.583313,152.516556 110.627930,152.717499 
	C110.695168,154.022644 110.717789,155.126862 110.698563,156.646393 
	C108.892326,159.149582 108.973984,161.670273 108.994049,164.575287 
	C108.502068,165.411728 108.011383,166.093552 107.407928,166.113922 
	C98.830948,166.403458 90.424583,165.701614 82.391739,161.155518 
z"/>
<path fill="#616EE4" opacity="1.000000" stroke="none" 
	d="
M490.982117,191.964966 
	C498.420746,197.250931 504.248169,203.890976 509.465088,211.527145 
	C509.393250,214.351929 508.111359,216.282578 506.339142,217.795502 
	C503.332855,220.362000 500.573822,223.135727 497.930634,226.078476 
	C495.039673,229.297073 493.682617,229.095764 491.021149,225.457825 
	C489.550537,223.447647 487.881165,221.685867 485.510132,220.172043 
	C481.900787,217.980011 480.857483,215.489197 482.675018,211.609802 
	C485.643127,205.274536 486.652954,198.116898 490.982117,191.964966 
z"/>
<path fill="#4352D5" opacity="1.000000" stroke="none" 
	d="
M255.447327,197.265030 
	C255.117249,196.506744 255.101837,196.071960 255.074554,195.311096 
	C252.936386,190.574890 254.430389,185.898468 254.125916,180.919342 
	C257.979218,175.482727 263.791077,176.853302 268.807404,176.095459 
	C273.005463,175.461243 277.397217,176.235855 281.922729,174.883026 
	C283.653412,177.776489 282.724396,180.674042 282.999969,183.890335 
	C283.018219,187.027069 282.958252,189.746796 283.094788,192.865570 
	C283.206757,193.526993 283.267120,193.788559 283.196106,194.430756 
	C282.936554,195.288513 282.808411,195.765625 282.674866,196.617401 
	C282.830261,197.932983 282.511963,198.736359 281.616913,199.765030 
	C275.391907,201.576233 269.561371,199.911453 263.734131,199.554077 
	C261.103149,199.392700 258.031860,199.745667 255.447327,197.265030 
z"/>
<path fill="#1229C7" opacity="1.000000" stroke="none" 
	d="
M334.979797,161.681824 
	C333.667175,167.317688 330.308014,168.694641 325.347443,168.067749 
	C322.239441,167.674973 319.038116,167.851593 315.889008,167.997147 
	C312.229156,168.166306 310.873749,165.897491 311.397186,163.018295 
	C312.152649,158.863083 312.056244,154.737366 311.926575,150.616608 
	C311.799988,146.593674 313.170471,144.825378 317.367462,145.007492 
	C322.672943,145.237686 327.996582,145.050308 333.798767,145.033295 
	C334.486938,145.002167 334.688782,144.980774 334.985413,145.248688 
	C334.950165,146.486374 336.294983,147.417450 334.953613,148.735138 
	C334.210022,150.813263 334.595276,152.581665 334.664673,154.633850 
	C334.875092,155.720016 336.342957,156.252014 334.990967,157.659027 
	C334.774902,158.065948 334.584564,158.485992 334.673645,158.698669 
	C334.835327,159.707184 336.344757,160.241974 334.979797,161.681824 
z"/>
<path fill="#606DE0" opacity="1.000000" stroke="none" 
	d="
M160.350815,144.509613 
	C163.151154,145.518295 162.869995,147.627365 162.855743,149.614853 
	C162.809219,156.100403 162.753098,162.585861 162.755035,169.538254 
	C163.010040,170.159149 163.210663,170.313141 163.616409,170.792770 
	C163.875046,171.373947 163.928574,171.629501 163.949112,172.283844 
	C163.824738,172.939178 163.733337,173.195755 163.409622,173.796265 
	C162.788727,174.556442 162.338867,174.890564 161.426025,175.297058 
	C152.372559,175.431107 143.713928,175.559937 134.857178,173.532806 
	C133.804337,171.858810 134.074570,170.375992 133.910828,168.512054 
	C135.021622,167.205704 136.259827,166.316620 137.858688,165.269836 
	C138.312836,164.908371 138.406342,164.704636 138.779266,164.313858 
	C139.058716,164.126831 139.041534,164.055542 139.078064,164.058777 
	C139.738602,163.259048 140.930954,163.140945 141.335022,161.865616 
	C141.465866,161.465210 141.668625,161.358780 142.213562,161.222397 
	C142.757645,161.555527 143.034454,161.626587 143.230591,161.219940 
	C142.259369,157.969467 145.469757,157.992615 146.712296,156.626892 
	C150.737930,152.202194 154.998581,147.947632 160.350815,144.509613 
z"/>
<path fill="#2335C4" opacity="1.000000" stroke="none" 
	d="
M255.085876,197.406830 
	C263.691406,197.610168 272.250122,198.278809 281.224609,198.933685 
	C281.844421,198.731476 282.048492,198.543060 282.520081,198.674042 
	C282.817719,199.737518 282.847839,200.481567 283.053345,201.555115 
	C283.287079,202.089798 283.345428,202.294998 283.314880,202.807587 
	C283.034241,204.498825 282.842407,205.882660 282.607422,207.687866 
	C282.530792,208.503647 282.509064,208.898682 282.498749,209.591415 
	C282.490845,210.086395 282.485107,210.284393 282.421692,210.773926 
	C282.127777,211.614136 281.838501,212.130035 281.220093,212.781311 
	C281.058441,215.425125 279.669861,216.145676 277.488647,215.981247 
	C271.057800,215.496552 264.624817,215.040100 258.194550,214.547836 
	C256.465149,214.415436 256.303589,213.047272 255.977524,211.716827 
	C254.858170,207.149750 254.921829,202.515640 255.085876,197.406830 
z"/>
<path fill="#5F6CDD" opacity="1.000000" stroke="none" 
	d="
M236.160522,168.655884 
	C225.199112,168.834946 214.498947,169.788773 203.452408,167.968933 
	C201.284622,166.724777 200.243011,165.039948 200.665787,162.925858 
	C201.836136,157.073456 201.317749,151.304993 200.236786,145.149170 
	C200.416061,144.511047 200.512756,144.263092 200.879333,143.720978 
	C202.204285,143.343887 203.259384,143.260971 204.611633,142.913330 
	C205.752151,143.314972 206.556931,144.048965 207.929993,144.433502 
	C209.826523,146.941345 211.472092,149.242447 214.813293,149.872971 
	C215.338776,149.967422 215.540039,150.087784 215.918304,150.512115 
	C216.028915,151.173889 216.147034,151.442566 216.726196,151.573624 
	C221.632629,155.425644 227.230118,158.248978 230.799133,163.354660 
	C232.167694,165.312454 235.086746,164.762726 236.017075,167.452942 
	C236.128769,168.026550 236.289764,168.220276 236.160522,168.655884 
z"/>
<path fill="#1A27A4" opacity="1.000000" stroke="none" 
	d="
M206.611801,213.672363 
	C207.413010,222.227051 206.060715,230.509659 207.637085,239.150757 
	C207.475327,239.736710 207.299454,239.871719 206.948456,240.004150 
	C195.972946,241.293762 185.125412,240.219818 174.297562,240.486313 
	C170.574036,240.577988 166.768875,241.185577 163.083069,239.462662 
	C167.391708,238.931061 171.703506,238.888412 176.474976,238.829178 
	C179.283630,236.502838 182.486130,236.793365 185.350739,236.206543 
	C187.640808,235.737442 188.731262,234.707611 189.269363,232.437744 
	C189.926666,229.664993 190.132965,226.874283 190.436935,224.070572 
	C190.781830,220.889587 190.202240,218.568481 186.568787,217.716599 
	C184.629532,217.261932 182.609299,216.269577 184.279892,213.221100 
	C191.229675,211.058594 197.932297,211.776093 205.066223,212.625748 
	C205.755402,212.990067 206.011993,213.170364 206.611801,213.672363 
z"/>
<path fill="#3F4CC8" opacity="1.000000" stroke="none" 
	d="
M201.236908,143.833557 
	C203.466934,150.507828 204.284317,157.110336 202.376068,163.886093 
	C202.100021,164.866318 202.702576,166.093964 202.962906,167.580505 
	C198.406937,167.953171 193.779327,167.791931 189.168549,168.001251 
	C185.302643,168.176727 183.656937,165.761139 184.322220,162.850311 
	C185.302048,158.563095 184.573792,154.343155 184.799026,150.125214 
	C185.027176,145.853210 186.587524,144.617264 190.459213,144.955322 
	C191.733551,145.066589 193.052261,144.669830 194.686035,144.277222 
	C194.889557,143.832092 194.757721,143.615143 194.984070,143.268860 
	C196.650238,143.172409 197.958221,143.205276 199.656998,143.280121 
	C200.387802,143.404053 200.704285,143.540573 201.236908,143.833557 
z"/>
<path fill="#4050D8" opacity="1.000000" stroke="none" 
	d="
M485.297546,220.383041 
	C489.011017,219.066422 489.968140,222.648895 491.613525,224.567566 
	C493.849335,227.174744 495.333435,227.210342 497.050232,224.426636 
	C500.095306,219.489014 505.800781,217.081757 509.147217,211.974594 
	C511.507446,211.794846 512.656311,213.038696 513.888672,214.721161 
	C514.488770,215.499054 515.005249,215.849503 515.925781,216.160126 
	C516.387512,216.419205 516.554138,216.553070 516.914062,216.941650 
	C517.564148,218.571396 517.822998,220.085114 519.706360,220.838379 
	C520.245117,221.171982 520.510132,221.363724 520.816406,221.869995 
	C522.443665,224.501801 520.554138,225.636536 519.096191,226.886459 
	C516.353699,229.237717 513.918152,231.620804 512.437866,235.193359 
	C510.297791,240.358261 504.801636,240.983826 500.871429,236.970551 
	C499.940704,236.020157 499.034088,235.091583 497.399261,234.523712 
	C492.227753,230.641663 490.288422,224.428787 485.297546,220.383041 
z"/>
<path fill="#4252D5" opacity="1.000000" stroke="none" 
	d="
M134.809677,173.115326 
	C143.768845,172.292313 152.372437,173.146210 161.412140,173.917053 
	C163.252884,174.427444 163.362900,175.836319 164.071960,177.297577 
	C164.298889,177.901505 164.369843,178.151535 164.542938,178.781631 
	C164.806381,180.230804 164.712799,181.274963 164.179214,182.657104 
	C163.849533,183.227158 163.679764,183.431870 163.152069,183.812714 
	C162.109100,187.736679 160.522873,189.108093 156.239136,188.193604 
	C149.230270,186.697311 142.008545,186.198166 134.531265,185.075226 
	C134.185043,184.477020 134.184158,184.082001 134.155487,183.390778 
	C133.972137,181.897400 133.985413,180.696518 134.076752,179.195328 
	C134.104797,178.896118 134.109085,178.449677 134.051666,178.233978 
	C133.861572,177.845108 133.728912,177.671936 133.794617,177.238525 
	C134.000717,176.804214 134.008438,176.630142 133.879181,176.233459 
	C134.000412,175.110641 133.935104,174.118210 134.809677,173.115326 
z"/>
<path fill="#2739BE" opacity="1.000000" stroke="none" 
	d="
M497.190002,234.702667 
	C499.425140,233.472382 500.558136,235.403732 502.082733,236.569473 
	C505.452087,239.145706 510.417786,238.268799 510.937592,234.552856 
	C511.695770,229.132751 515.668701,227.197388 519.333923,224.629837 
	C519.951782,224.197006 520.316223,223.402390 520.860107,222.434998 
	C524.895508,221.330933 527.177490,225.428757 528.483826,227.016083 
	C531.497498,230.677948 534.842468,234.014465 538.026672,237.506805 
	C538.721680,238.269043 539.395203,239.140900 537.236938,239.624817 
	C528.568970,241.331863 520.185547,240.181992 511.394867,240.677612 
	C510.212189,240.975479 509.790710,242.563766 508.343536,241.064117 
	C506.264832,240.147720 504.488068,240.707321 502.488098,240.189484 
	C499.308350,239.525909 499.413635,236.190582 497.190002,234.702667 
z"/>
<path fill="#202CA0" opacity="1.000000" stroke="none" 
	d="
M353.355621,271.543152 
	C352.375702,274.390991 350.605286,276.630249 354.120697,278.944855 
	C356.167114,280.292267 354.541870,283.300873 353.492523,284.729858 
	C351.216278,287.829498 347.070190,287.536224 343.997803,287.124847 
	C341.138550,286.742004 338.706573,283.279968 339.173309,280.290588 
	C339.606140,277.518219 339.549011,274.943115 339.519165,272.205902 
	C339.437286,264.697601 340.891571,263.509460 349.811371,262.614502 
	C350.682831,260.880554 351.969421,261.732208 353.299469,261.731812 
	C355.359253,263.790527 354.545105,265.508087 353.344513,267.535278 
	C353.460449,268.963043 353.743439,270.047760 353.355621,271.543152 
z"/>
<path fill="#1F299B" opacity="1.000000" stroke="none" 
	d="
M238.148865,274.948730 
	C237.893982,275.395905 237.902863,275.721649 237.848938,275.875397 
	C237.256149,277.140869 237.654175,278.360352 237.099503,279.697388 
	C235.636856,280.431061 234.575806,281.252777 233.209167,280.094208 
	C231.585983,278.718140 233.248657,277.934937 233.596008,276.911102 
	C234.135941,275.319641 233.719482,273.696167 233.814331,272.105743 
	C233.906418,270.561218 234.451355,268.675629 232.466248,268.599640 
	C230.766098,268.534576 229.014481,269.715210 228.926224,271.959473 
	C228.848450,273.937164 228.958649,275.928650 228.772476,277.893860 
	C228.591827,279.800812 228.138489,281.680634 225.210480,280.261108 
	C223.947510,277.884827 224.792206,275.666077 224.360260,273.150269 
	C225.047775,269.254364 223.924149,267.646637 220.025681,268.877808 
	C219.254211,272.519318 219.638550,275.963318 219.244247,279.763916 
	C216.308136,282.214813 215.430801,279.868530 215.512543,278.131378 
	C215.630035,275.633881 214.138336,273.315277 215.451279,270.577972 
	C216.413025,268.572876 214.500809,265.911591 215.243088,263.874420 
	C221.556580,263.237274 227.640442,262.605103 233.913116,263.862671 
	C236.794693,264.440369 237.000732,265.870239 237.832703,267.955688 
	C237.450928,269.006348 237.498444,269.694275 237.695129,270.695007 
	C237.867203,271.177185 237.893295,271.346863 237.870819,271.769470 
	C237.743240,272.190247 237.664215,272.358063 237.695709,272.781189 
	C237.806198,273.036530 237.910080,273.311615 237.903595,273.458496 
	C238.066010,273.904083 238.234848,274.202820 238.148865,274.948730 
z"/>
<path fill="#273498" opacity="1.000000" stroke="none" 
	d="
M210.383057,275.671387 
	C208.798431,280.802673 206.300430,282.354980 201.160339,280.900940 
	C197.471130,279.857330 196.482697,276.653351 196.357910,272.957825 
	C196.228348,269.120605 197.454132,266.335938 200.523880,263.926849 
	C202.875381,262.081390 205.594696,261.744781 207.430954,263.113892 
	C210.058853,265.073273 211.183640,268.332489 211.096771,271.888428 
	C211.064224,273.220032 208.983948,273.839783 210.383057,275.671387 
z"/>
<path fill="#303AA1" opacity="1.000000" stroke="none" 
	d="
M142.796951,262.118134 
	C146.930481,257.194458 152.613617,257.249420 155.516251,261.788788 
	C156.133102,262.753479 157.919342,263.346161 155.835709,264.718445 
	C154.486923,265.606720 153.549240,266.419373 152.136642,264.760498 
	C151.333038,263.816772 150.732208,262.346313 148.707474,262.891052 
	C147.041977,263.339111 148.005920,264.283783 147.858231,264.967072 
	C147.212387,267.955078 149.836044,266.739471 151.007629,267.230927 
	C153.915268,268.450500 155.562073,269.969513 156.221497,272.845520 
	C156.695007,273.810211 156.762222,274.466492 156.354492,275.480133 
	C156.251236,280.294525 152.935760,280.836273 149.641602,281.252411 
	C146.656494,281.629486 144.196381,280.618011 142.483322,278.030243 
	C141.497192,276.540558 141.935043,274.989716 142.826721,273.870850 
	C144.053955,272.330902 145.467056,274.069580 145.999420,274.663513 
	C148.191772,277.109283 150.228546,275.649445 153.168839,274.944946 
	C149.335617,272.494385 145.391693,271.292938 143.132172,267.432861 
	C142.114487,265.648956 142.615860,264.063141 142.796951,262.118134 
z"/>
<path fill="#2F389C" opacity="1.000000" stroke="none" 
	d="
M335.011536,274.918701 
	C335.654114,276.038513 336.286621,276.784454 336.919128,277.530426 
	C334.801758,277.657013 335.112488,280.534363 332.698700,280.833313 
	C326.904388,281.550934 322.252686,280.282043 321.188873,275.050568 
	C320.459351,271.462952 323.137054,267.182434 324.291656,263.211670 
	C327.287567,265.158569 331.017639,260.397003 333.714081,264.129303 
	C335.996735,267.288849 338.038696,270.649841 335.011536,274.918701 
z"/>
<path fill="#2C3498" opacity="1.000000" stroke="none" 
	d="
M241.254517,275.257935 
	C243.365280,272.408661 240.891342,269.082611 242.449692,266.345062 
	C244.094147,263.456207 249.340546,261.420471 252.561020,263.187164 
	C254.935349,264.489716 254.810318,268.185852 254.362839,269.883057 
	C253.662735,272.538391 254.242126,274.325989 255.370300,276.313934 
	C256.710724,278.675934 255.619843,280.532410 253.537048,280.827850 
	C250.585190,281.246490 247.567200,280.541962 244.543839,281.751007 
	C243.528351,282.157104 242.162140,280.286194 241.920059,278.276398 
	C241.212585,277.210419 241.578018,276.315765 241.254517,275.257935 
z"/>
<path fill="#27319A" opacity="1.000000" stroke="none" 
	d="
M382.167206,276.839661 
	C383.225616,277.749939 383.150604,278.662994 382.765259,279.345825 
	C381.190552,282.136078 371.315460,281.907837 369.746735,279.093384 
	C366.799133,273.805084 366.785400,273.780853 367.865021,273.169342 
	C369.915100,272.008209 371.053558,269.435028 373.886963,269.426971 
	C374.615936,269.424896 375.343048,268.771820 376.090454,268.408356 
	C375.450806,267.700073 374.681732,268.015625 373.939636,268.104492 
	C372.312103,268.299469 370.375427,270.061371 369.250214,267.437408 
	C367.983429,264.483215 370.772217,264.265411 372.310150,263.395355 
	C375.517853,261.580688 380.060242,263.541870 381.074799,267.205170 
	C381.390778,268.346100 382.421936,268.577911 382.729797,269.653748 
	C380.334656,271.942932 382.000427,274.372253 382.167206,276.839661 
z"/>
<path fill="#242D8D" opacity="1.000000" stroke="none" 
	d="
M397.883423,263.557312 
	C400.328766,262.870880 402.548462,262.041504 404.865967,263.114807 
	C408.660156,264.871948 410.156860,267.600189 408.814850,271.657501 
	C407.649048,275.181976 404.803314,274.778137 402.064911,274.369049 
	C401.347260,274.261871 400.816986,274.164093 400.150848,275.109253 
	C401.724335,276.665894 403.281036,277.987732 405.357483,275.825745 
	C406.638824,274.491577 407.728668,274.588745 408.532715,276.021729 
	C409.194763,277.201630 409.298553,278.776703 407.901001,279.539551 
	C405.272827,280.974060 402.742523,281.881531 399.519135,280.239044 
	C396.757019,278.831573 395.727997,276.799744 396.196655,274.352448 
	C396.855499,270.912170 393.469574,266.864746 397.883423,263.557312 
z"/>
<path fill="#333B9D" opacity="1.000000" stroke="none" 
	d="
M171.193024,264.303406 
	C174.506042,262.594116 177.688965,258.724182 180.314484,264.583923 
	C180.570694,265.155762 181.213379,266.072113 181.057556,266.234558 
	C177.816330,269.612885 181.154449,272.661835 181.406464,275.852631 
	C181.611404,278.447266 180.089767,280.355164 177.662155,280.834595 
	C174.844437,281.391083 171.547272,281.368164 169.847504,278.729187 
	C167.502792,275.088867 171.114639,275.383453 173.179535,274.748383 
	C171.720062,272.836853 168.452194,272.025665 169.021576,269.017731 
	C169.304230,267.524536 168.078613,265.037170 171.193024,264.303406 
z"/>
<path fill="#2C3395" opacity="1.000000" stroke="none" 
	d="
M423.882416,279.820557 
	C421.075958,281.046112 418.825562,282.134705 415.904266,280.350525 
	C414.376892,279.417694 413.190796,279.051666 413.045868,277.086975 
	C412.852142,274.460693 415.730194,275.837036 416.522003,274.149689 
	C414.858032,272.382507 411.529694,271.877289 413.095886,267.673676 
	C415.026276,262.492554 418.847229,260.458221 423.592621,263.887604 
	C425.111298,264.985138 424.996277,267.713837 423.406067,268.590454 
	C420.451935,270.218933 422.528687,271.765106 423.389679,272.573334 
	C425.775879,274.813385 425.676727,277.009857 423.882416,279.820557 
z"/>
<path fill="#2E369C" opacity="1.000000" stroke="none" 
	d="
M270.374329,272.650360 
	C273.139435,275.039062 271.667145,277.690491 270.256897,279.081421 
	C267.976868,281.330231 264.724609,282.005219 261.663971,280.014893 
	C260.302673,279.129639 259.145447,277.930573 257.984833,276.949371 
	C259.418030,274.737457 261.136505,275.101715 262.759949,275.141846 
	C263.472351,275.159454 263.894165,277.324585 264.779755,275.533783 
	C265.394562,274.290558 264.101593,273.418732 263.298859,273.496185 
	C256.831848,274.120026 259.829376,268.670532 258.436432,266.073303 
	C258.315918,265.848572 258.298615,265.305206 258.351868,265.288544 
	C260.484467,264.621338 262.600830,263.696777 264.786255,263.479797 
	C266.135040,263.345886 267.639160,261.733307 269.287231,264.410858 
	C270.867737,266.978607 271.939911,267.913757 268.816528,269.919250 
	C266.545502,271.377411 269.837646,271.515747 270.374329,272.650360 
z"/>
<path fill="#1327B3" opacity="1.000000" stroke="none" 
	d="
M416.755524,206.535217 
	C421.849457,212.551315 422.896454,220.667252 426.136871,227.842316 
	C427.021790,229.801743 427.402344,231.982864 428.184326,233.996246 
	C429.433319,237.212128 431.552826,239.147629 435.332153,239.039474 
	C440.822876,238.882370 446.322876,238.929718 451.816284,239.032196 
	C455.588654,239.102570 456.595032,237.747665 455.110382,234.167206 
	C452.652252,228.238998 449.531769,222.502090 449.291138,215.542450 
	C452.435608,222.298187 456.020233,229.225067 458.219696,236.566925 
	C459.701538,241.513382 455.024048,241.163086 451.337769,241.070847 
	C449.891296,240.233795 448.755524,240.575241 447.359344,240.700577 
	C446.225616,241.162415 445.466583,242.314209 444.209381,240.978333 
	C441.227814,240.097305 438.475586,240.645645 435.407227,240.701874 
	C430.230133,243.336700 427.293396,239.445099 426.623230,236.495636 
	C424.297180,226.258575 419.407288,216.967590 416.755524,206.535217 
z"/>
<path fill="#202B9E" opacity="1.000000" stroke="none" 
	d="
M305.203857,279.493042 
	C303.332184,280.626984 301.872162,279.729492 302.267731,278.359070 
	C303.111938,275.434479 299.280121,272.935425 301.828156,269.993835 
	C302.304108,269.444366 301.971771,268.159882 300.952515,268.105011 
	C299.445435,268.023956 297.934875,268.185699 297.047546,269.856598 
	C295.743744,272.311615 295.468170,274.862549 296.202850,277.470093 
	C296.666718,279.116516 296.535278,280.557739 294.678284,280.514069 
	C293.446808,280.485107 292.023621,279.863831 292.115540,277.707886 
	C292.268982,274.109589 291.671173,270.429749 291.674347,266.901031 
	C291.678528,262.253510 296.813110,263.463593 299.752655,262.518677 
	C301.439392,261.976501 303.803894,262.806396 304.873779,265.481415 
	C305.977234,270.225342 305.336304,274.660767 305.203857,279.493042 
z"/>
<path fill="#212C9D" opacity="1.000000" stroke="none" 
	d="
M319.015564,280.195129 
	C313.723969,281.287048 311.172913,279.852386 311.079315,275.124969 
	C310.991150,270.672241 308.702728,266.068573 311.417755,261.735199 
	C311.796051,261.131470 311.922180,259.373047 313.139435,260.112579 
	C315.546478,261.574890 317.941071,263.198944 319.903442,265.187683 
	C320.780853,266.076813 319.288452,267.050201 318.273132,267.716187 
	C313.929260,270.565399 314.150879,274.583801 318.777618,277.108948 
	C320.217072,277.894562 320.020142,278.827698 319.015564,280.195129 
z"/>
<path fill="#2D3598" opacity="1.000000" stroke="none" 
	d="
M186.274506,268.496338 
	C185.608246,268.054504 184.843842,268.188171 184.663986,267.923920 
	C182.634338,264.942139 187.075684,263.300598 186.366028,260.411835 
	C186.283539,260.076019 188.614304,259.772308 189.419250,260.549011 
	C191.191391,262.258972 194.044235,263.051819 194.460800,265.890137 
	C194.530518,266.365234 194.212921,267.690887 192.817520,267.934845 
	C189.547440,268.506561 190.086151,271.304230 189.933273,273.583893 
	C189.773743,275.962708 190.929352,276.781616 193.280869,276.415497 
	C193.986465,276.305603 194.800720,277.040222 194.934601,277.965240 
	C195.102173,279.123047 194.439941,279.630066 193.434464,280.155090 
	C191.220810,281.310944 189.184418,281.796997 187.119293,279.387573 
	C185.862839,275.694885 186.862381,272.252380 186.274506,268.496338 
z"/>
<path fill="#222C9C" opacity="1.000000" stroke="none" 
	d="
M391.052368,269.857727 
	C391.157837,272.868256 390.193237,275.499237 392.569519,277.731842 
	C393.766846,278.856781 392.965363,280.382019 391.383270,280.668274 
	C389.769958,280.960175 387.338562,281.482788 387.183960,279.012512 
	C386.746460,272.020782 387.419403,264.987701 386.556610,257.993347 
	C386.379822,256.560150 387.646393,257.172272 388.283844,257.145996 
	C389.573120,257.092926 391.024139,256.919830 391.011017,258.967865 
	C390.988800,262.438995 391.030060,265.910522 391.052368,269.857727 
z"/>
<path fill="#192291" opacity="1.000000" stroke="none" 
	d="
M287.279541,266.595154 
	C287.090179,270.729370 286.902069,274.573029 287.130646,278.391754 
	C287.226166,279.987274 286.209717,280.592316 285.391724,280.793579 
	C284.248291,281.074829 283.165527,280.319000 283.022644,278.891144 
	C282.851501,277.180634 281.980194,275.627045 282.584747,273.728455 
	C283.602631,270.531860 283.758148,266.982147 282.690857,263.958832 
	C281.862122,261.611298 282.239624,259.268829 283.578796,258.736389 
	C285.484589,257.978638 287.165253,259.765045 287.567993,262.471313 
	C287.836578,264.028534 287.375610,265.149475 287.279541,266.595154 
z"/>
<path fill="#263098" opacity="1.000000" stroke="none" 
	d="
M361.662170,274.724731 
	C361.859924,277.703339 363.389862,281.286163 357.877655,280.722321 
	C359.312286,276.260498 357.377075,271.974426 357.786560,267.453644 
	C358.040741,264.647675 358.587006,263.650635 360.814209,262.965057 
	C363.448486,262.154205 365.312531,262.961853 366.216156,265.671722 
	C366.314789,265.967407 366.555725,266.215607 366.799408,266.592041 
	C365.226837,267.709839 363.653595,268.828156 362.003723,270.265564 
	C362.008362,271.883301 361.194611,273.093475 361.662170,274.724731 
z"/>
<path fill="#30389A" opacity="1.000000" stroke="none" 
	d="
M164.749039,278.877411 
	C164.264542,280.750824 162.660446,280.943146 160.970474,282.186981 
	C161.325424,275.672394 158.863892,269.516907 162.304108,263.589142 
	C162.460297,263.320007 161.475235,262.398010 161.034988,261.770752 
	C160.507538,261.019257 159.437073,260.475281 160.269257,259.249908 
	C161.203583,257.874115 162.603653,258.170471 163.882080,258.156891 
	C165.437775,258.140289 165.260376,259.537384 165.099945,260.328827 
	C164.750626,262.052002 167.044144,263.721222 164.993454,265.757812 
	C164.364075,270.238190 164.490524,274.371674 164.749039,278.877411 
z"/>
<path fill="#E5EAFF" opacity="1.000000" stroke="none" 
	d="
M162.751862,238.982330 
	C164.315567,240.681961 166.125763,239.838547 167.640457,239.854584 
	C180.385071,239.989594 193.130890,240.009705 206.329575,240.039154 
	C203.438736,242.529846 199.513657,241.117874 195.957916,241.235474 
	C185.952103,241.566391 175.916855,240.948685 165.904053,241.178268 
	C163.948135,241.223099 162.683624,240.927963 161.239319,239.521027 
	C161.560303,239.138855 161.992065,239.064926 162.751862,238.982330 
z"/>
<path fill="#C0C2D8" opacity="1.000000" stroke="none" 
	d="
M80.717468,143.337524 
	C81.032234,144.997604 80.997833,146.623810 81.043617,148.651978 
	C81.902931,152.063690 81.349258,155.122147 81.302277,158.588013 
	C81.076462,167.365631 81.004707,175.711655 80.563278,184.522476 
	C78.108162,178.694839 80.747574,172.330200 79.957108,166.076126 
	C79.283913,160.749817 80.328026,155.510071 79.945122,150.264542 
	C79.769867,147.863754 77.696533,145.502075 80.717468,143.337524 
z"/>
<path fill="#B9BEF8" opacity="1.000000" stroke="none" 
	d="
M334.981384,145.080719 
	C335.080261,145.537994 334.733643,145.199677 334.509399,145.111618 
	C333.124237,143.213379 331.290436,143.997559 329.768951,143.993073 
	C318.892731,143.961136 308.016174,144.038345 296.693481,144.110870 
	C296.093170,143.288559 296.550690,142.992645 297.308746,142.994522 
	C309.245697,143.024261 321.182617,143.064056 333.119568,143.075836 
	C334.232819,143.076935 335.110748,143.174820 334.981384,145.080719 
z"/>
<path fill="#5D69CC" opacity="1.000000" stroke="none" 
	d="
M255.836151,167.408905 
	C260.090332,162.004807 264.908478,157.731262 270.820068,154.224731 
	C271.757355,155.305313 271.848969,156.241364 271.322540,156.869827 
	C267.246277,161.736374 263.660767,167.237686 256.441895,168.505981 
	C255.952896,168.149063 255.807449,167.945328 255.836151,167.408905 
z"/>
<path fill="#CFD6FF" opacity="1.000000" stroke="none" 
	d="
M109.918686,216.065857 
	C110.693024,206.857590 109.706406,197.568161 110.015419,188.301956 
	C110.098099,185.822784 110.170616,183.343262 110.525673,180.576141 
	C110.857018,191.800171 110.917007,203.311966 110.936623,214.823837 
	C110.937302,215.223389 110.535027,215.623611 109.918686,216.065857 
z"/>
<path fill="#DBE1FF" opacity="1.000000" stroke="none" 
	d="
M419.363251,143.218994 
	C409.407898,143.198715 399.825653,143.119965 389.816528,143.141876 
	C389.262939,142.523285 388.090027,141.568558 390.204742,141.668839 
	C400.707123,142.166885 411.216888,142.295349 421.720642,141.571594 
	C421.779114,141.567566 421.875305,142.111053 421.965302,142.790207 
	C421.229950,143.174545 420.483154,143.167526 419.363251,143.218994 
z"/>
<path fill="#E3E3FF" opacity="1.000000" stroke="none" 
	d="
M354.334839,240.274841 
	C364.370056,239.944595 374.313721,239.967575 384.660706,239.717056 
	C383.603577,242.307281 381.491486,241.301407 378.924133,241.143829 
	C371.717499,240.701477 364.449036,241.006058 357.223419,241.376419 
	C355.935699,241.442429 355.283417,240.597061 354.334839,240.274841 
z"/>
<path fill="#B3B8EF" opacity="1.000000" stroke="none" 
	d="
M195.147095,142.788025 
	C195.342239,143.139557 195.168091,143.589600 195.094742,143.819336 
	C184.860687,143.942368 174.699997,143.835663 164.198029,143.465347 
	C172.505112,143.356689 181.142090,142.347214 189.801788,143.001877 
	C191.494583,143.129868 193.234009,142.640900 195.147095,142.788025 
z"/>
<path fill="#E3E5FF" opacity="1.000000" stroke="none" 
	d="
M511.361603,240.878784 
	C517.418030,239.107224 524.004395,240.488297 530.525208,240.092499 
	C532.341919,239.982208 534.170532,240.069153 536.438599,239.971619 
	C537.038757,239.933090 537.299866,239.956360 537.328552,240.050430 
	C537.398621,240.280365 537.367554,240.761734 537.366089,240.761780 
	C531.773499,240.925842 526.180481,241.109177 520.586182,241.171829 
	C517.650574,241.204742 514.712524,241.026108 511.361603,240.878784 
z"/>
<path fill="#333FA6" opacity="1.000000" stroke="none" 
	d="
M255.495941,179.525970 
	C255.154602,184.604004 255.116196,189.329239 255.070251,194.519745 
	C255.062698,194.985016 254.593063,195.028519 254.357788,195.044785 
	C252.710434,189.000900 253.933517,182.841553 253.169205,176.367477 
	C252.905243,175.987885 252.971100,176.011536 252.952560,176.041214 
	C252.844208,175.797577 252.754410,175.524261 252.851761,174.862122 
	C253.038895,174.473267 252.983414,174.422501 253.008331,174.394348 
	C253.935089,172.531769 253.253540,170.542572 253.946152,168.437256 
	C254.300522,168.221466 254.602386,168.033356 255.090546,168.324768 
	C257.756561,172.091293 257.646393,175.614120 255.495941,179.525970 
z"/>
<path fill="#5D69CC" opacity="1.000000" stroke="none" 
	d="
M281.886292,144.375580 
	C282.322662,144.912506 282.399292,145.293274 282.458069,145.871460 
	C280.372772,149.942291 278.166779,153.647919 272.496399,153.385803 
	C274.812500,149.678787 277.181854,145.864838 281.886292,144.375580 
z"/>
<path fill="#F8FFFF" opacity="1.000000" stroke="none" 
	d="
M283.442993,194.878387 
	C283.064728,194.811401 283.063385,194.452469 282.987122,194.290009 
	C282.072632,191.459045 282.695892,188.716736 282.501160,185.561615 
	C282.289795,181.503647 282.955109,177.865204 281.940613,173.851074 
	C281.702667,172.470352 281.867493,171.590698 282.744904,170.471436 
	C283.059479,170.136749 283.475464,170.043045 283.687897,170.063324 
	C283.873962,178.370865 283.847595,186.658127 283.442993,194.878387 
z"/>
<path fill="#B0B8F5" opacity="1.000000" stroke="none" 
	d="
M252.965637,176.454193 
	C255.289490,179.021622 253.602890,182.497559 253.905823,185.752655 
	C254.163467,188.521271 253.957397,191.333023 254.039520,194.593384 
	C253.990417,196.103592 253.858307,197.146118 253.367035,198.371597 
	C252.253159,195.267548 253.090607,191.988556 253.061264,188.704666 
	C253.026169,184.776810 253.035782,180.848572 252.965637,176.454193 
z"/>
<path fill="#3045D9" opacity="1.000000" stroke="none" 
	d="
M526.140442,148.944550 
	C521.938293,149.571594 518.801941,146.845886 515.347717,144.529999 
	C516.462402,143.795685 517.403259,144.249771 518.610962,145.007233 
	C519.201355,145.268036 519.455444,145.449188 519.846558,145.835800 
	C523.038147,144.561401 524.204163,147.293991 526.140442,148.944550 
z"/>
<path fill="#3F4C9C" opacity="1.000000" stroke="none" 
	d="
M459.537842,166.361298 
	C460.311340,166.636917 460.872253,167.086243 461.636414,167.707092 
	C465.398621,170.243439 469.498260,168.222824 473.570374,169.457916 
	C470.324799,169.801498 466.713501,169.829605 463.133667,170.179504 
	C460.236450,170.462677 460.453857,167.882584 459.537842,166.361298 
z"/>
<path fill="#B7B7CE" opacity="1.000000" stroke="none" 
	d="
M80.285202,200.335220 
	C81.425659,204.359177 80.883392,208.815399 80.441513,213.548004 
	C77.552956,209.469635 80.641075,205.099228 80.285202,200.335220 
z"/>
<path fill="#1327B3" opacity="1.000000" stroke="none" 
	d="
M448.937775,213.597397 
	C446.093719,212.141022 444.442627,209.689041 445.093445,205.937363 
	C446.102692,205.824173 446.408752,206.335571 446.610809,207.334183 
	C448.081909,209.246994 448.763672,211.130829 448.937775,213.597397 
z"/>
<path fill="#262F88" opacity="1.000000" stroke="none" 
	d="
M279.105011,237.408936 
	C281.912415,237.770599 285.147278,237.281097 287.857574,239.621460 
	C285.052551,239.215546 281.457275,241.179810 279.105011,237.408936 
z"/>
<path fill="#3F4CC8" opacity="1.000000" stroke="none" 
	d="
M215.058594,149.591766 
	C211.107010,151.320023 209.744598,148.238602 208.023239,145.354431 
	C208.185715,144.857773 208.387711,144.709122 208.913483,144.752060 
	C211.558975,145.875107 213.434708,147.389572 215.058594,149.591766 
z"/>
<path fill="#B7B7CE" opacity="1.000000" stroke="none" 
	d="
M80.122887,185.368073 
	C80.193604,184.987259 80.504715,184.988052 80.660263,184.987396 
	C80.948616,188.186859 81.280579,191.392334 80.455864,194.694916 
	C77.999985,191.871338 80.191040,188.771423 80.122887,185.368073 
z"/>
<path fill="#2A3AC1" opacity="1.000000" stroke="none" 
	d="
M135.088608,172.478775 
	C134.844666,173.814240 134.582047,174.706604 134.030792,175.804916 
	C132.236389,173.551666 133.084518,170.938583 133.513092,168.232697 
	C135.487823,168.992004 134.871750,170.646744 135.088608,172.478775 
z"/>
<path fill="#9CA5BB" opacity="1.000000" stroke="none" 
	d="
M305.353271,279.711182 
	C304.986725,275.534180 304.998077,271.157623 305.033234,266.307617 
	C306.903381,270.313385 305.667023,274.944550 305.353271,279.711182 
z"/>
<path fill="#262F88" opacity="1.000000" stroke="none" 
	d="
M273.080078,232.149246 
	C275.854431,232.102829 277.805145,233.648605 278.911072,236.693726 
	C275.823700,237.041565 274.818573,234.387344 273.080078,232.149246 
z"/>
<path fill="#A7ABEB" opacity="1.000000" stroke="none" 
	d="
M164.940384,278.778320 
	C163.226959,275.148590 164.388306,270.905884 164.583496,266.421173 
	C164.883331,270.181091 164.916504,274.243439 164.940384,278.778320 
z"/>
<path fill="#B0B8F5" opacity="1.000000" stroke="none" 
	d="
M253.034302,200.914948 
	C254.990540,204.283707 253.582123,208.332886 253.519653,212.614746 
	C252.490067,209.105988 253.149704,205.236771 253.034302,200.914948 
z"/>
<path fill="#1628AF" opacity="1.000000" stroke="none" 
	d="
M399.198303,203.120712 
	C396.610596,200.773071 398.693359,199.571167 400.664429,198.247589 
	C401.525543,200.162231 400.287323,201.514755 399.198303,203.120712 
z"/>
<path fill="#949DD1" opacity="1.000000" stroke="none" 
	d="
M74.584831,214.143524 
	C71.127861,215.706985 67.114174,214.847153 62.797192,214.363358 
	C66.350830,214.050919 70.234398,214.056839 74.584831,214.143524 
z"/>
<path fill="#ACB3E6" opacity="1.000000" stroke="none" 
	d="
M219.374268,279.904785 
	C219.113892,276.647644 219.186295,273.151031 219.564392,269.385468 
	C220.439407,272.642426 219.860382,276.150604 219.374268,279.904785 
z"/>
<path fill="#434FAD" opacity="1.000000" stroke="none" 
	d="
M333.766296,231.333954 
	C334.107300,229.537750 334.232788,228.087463 334.540222,226.323853 
	C334.776215,229.664612 334.830200,233.318710 334.857300,237.424347 
	C334.684509,238.030899 334.538574,238.185928 334.093262,238.228394 
	C333.718536,237.916122 333.643219,237.716415 333.762451,237.262405 
	C333.966919,236.261276 333.976868,235.514435 333.965576,234.394623 
	C333.410950,233.308670 333.509369,232.489471 333.766296,231.333954 
z"/>
<path fill="#3045D9" opacity="1.000000" stroke="none" 
	d="
M531.709473,153.734955 
	C529.061707,153.990646 527.978577,151.755524 526.595703,149.601990 
	C530.199158,148.341995 530.431580,151.422745 531.709473,153.734955 
z"/>
<path fill="#AAB5E5" opacity="1.000000" stroke="none" 
	d="
M186.074646,268.548523 
	C187.784698,271.326324 186.540909,274.791321 186.968903,278.570068 
	C184.874466,275.849457 186.635895,272.308838 186.074646,268.548523 
z"/>
<path fill="#3F4C9C" opacity="1.000000" stroke="none" 
	d="
M496.483948,169.721832 
	C499.082642,168.529236 502.183044,168.948181 505.622375,169.482483 
	C502.952148,169.710526 499.940521,169.755966 496.483948,169.721832 
z"/>
<path fill="#272E90" opacity="1.000000" stroke="none" 
	d="
M291.517822,214.387360 
	C290.627106,216.611908 289.030792,216.286667 287.197296,214.785767 
	C288.423157,214.439270 289.772522,214.366653 291.517822,214.387360 
z"/>
<path fill="#2739BE" opacity="1.000000" stroke="none" 
	d="
M519.812988,220.779068 
	C517.624268,221.042297 516.102356,220.151947 516.060669,217.245239 
	C517.097839,216.448944 517.819458,216.910522 518.556641,217.991791 
	C519.019165,219.037704 519.364807,219.763062 519.812988,220.779068 
z"/>
<path fill="#142ECF" opacity="1.000000" stroke="none" 
	d="
M435.507385,240.901184 
	C437.742920,239.376633 440.528870,239.889603 443.622192,240.634094 
	C441.269135,240.889359 438.608917,240.916962 435.507385,240.901184 
z"/>
<path fill="#616EE4" opacity="1.000000" stroke="none" 
	d="
M501.819885,190.043106 
	C499.476898,191.902954 496.427277,190.765610 493.038391,191.076630 
	C495.255676,188.963440 498.440552,190.288528 501.819885,190.043106 
z"/>
<path fill="#47509E" opacity="1.000000" stroke="none" 
	d="
M209.195633,144.576660 
	C209.028198,144.949783 208.819153,144.955948 208.296906,144.984253 
	C206.669891,145.031631 205.443100,144.890671 204.915192,143.025757 
	C206.503296,142.681061 208.372971,141.965195 209.195633,144.576660 
z"/>
<path fill="#3045D9" opacity="1.000000" stroke="none" 
	d="
M513.749451,143.461090 
	C512.389648,144.828415 510.869965,145.657333 509.143127,143.690643 
	C510.552490,143.308273 512.074707,143.213486 513.749451,143.461090 
z"/>
<path fill="#2A3AC1" opacity="1.000000" stroke="none" 
	d="
M133.757782,179.052734 
	C135.095947,180.022430 135.197235,181.254517 134.334976,182.835541 
	C132.219101,182.107574 132.991470,180.625885 133.757782,179.052734 
z"/>
<path fill="#949DD1" opacity="1.000000" stroke="none" 
	d="
M60.309715,213.749695 
	C57.964390,215.809631 57.288963,214.604507 57.649601,211.798920 
	C58.594032,212.160294 59.340916,212.806519 60.309715,213.749695 
z"/>
<path fill="#3F4C9C" opacity="1.000000" stroke="none" 
	d="
M477.494934,169.705139 
	C479.424530,168.596695 481.849243,168.936523 484.596619,169.462250 
	C482.587769,169.682480 480.256927,169.732315 477.494934,169.705139 
z"/>
<path fill="#CDCEF4" opacity="1.000000" stroke="none" 
	d="
M382.331268,276.728088 
	C380.099976,275.064850 380.392700,272.979523 382.420044,270.380280 
	C380.845337,271.984192 382.988037,274.270630 382.331268,276.728088 
z"/>
<path fill="#D0D7F9" opacity="1.000000" stroke="none" 
	d="
M236.862381,182.416626 
	C235.284851,180.888397 236.059647,178.747940 236.523453,176.426910 
	C236.840652,178.131790 236.885773,180.068497 236.862381,182.416626 
z"/>
<path fill="#949DD1" opacity="1.000000" stroke="none" 
	d="
M58.179161,208.294586 
	C56.776413,207.175751 57.335945,205.596375 57.086861,203.766663 
	C57.324997,205.022812 59.902599,205.927231 58.179161,208.294586 
z"/>
<path fill="#E4E4EC" opacity="1.000000" stroke="none" 
	d="
M224.165741,273.190308 
	C225.646439,274.750946 224.659668,277.004028 224.973450,279.531586 
	C222.880646,278.103363 224.583359,275.702148 224.165741,273.190308 
z"/>
<path fill="#919AD3" opacity="1.000000" stroke="none" 
	d="
M518.852234,217.982971 
	C517.993774,217.912613 517.314087,217.512863 516.355713,216.992188 
	C516.076965,216.871246 516.032715,216.919250 516.054932,216.943130 
	C515.656189,216.618759 515.488525,216.174866 515.804810,215.335541 
	C516.466492,215.027863 516.897461,215.019943 517.649048,215.055054 
	C518.356201,215.936356 519.411133,216.497009 518.852234,217.982971 
z"/>
<path fill="#262F88" opacity="1.000000" stroke="none" 
	d="
M333.845825,237.790756 
	C334.116852,238.027725 334.476624,237.967377 334.653503,237.921631 
	C335.207611,239.930847 334.663757,241.031143 332.183990,239.987930 
	C332.031952,239.693451 331.969360,239.346466 331.989014,239.171265 
	C332.171417,238.832169 332.334198,238.668259 332.768494,238.289154 
	C333.040070,238.073959 333.064850,238.056915 333.074280,238.068604 
	C333.247406,237.904800 333.411102,237.729294 333.845825,237.790756 
z"/>
<path fill="#3045D9" opacity="1.000000" stroke="none" 
	d="
M534.964233,155.578735 
	C533.378845,157.587418 532.550354,156.695404 531.942749,154.559402 
	C532.908752,154.574615 533.917664,154.953094 534.964233,155.578735 
z"/>
<path fill="#D9E6FF" opacity="1.000000" stroke="none" 
	d="
M502.260498,240.348129 
	C503.960327,240.046173 505.721008,240.140335 507.713470,240.531525 
	C506.070618,240.800430 504.195984,240.772339 502.260498,240.348129 
z"/>
<path fill="#FFFFFF" opacity="1.000000" stroke="none" 
	d="
M287.446259,266.782440 
	C287.162018,265.692230 287.213989,264.488647 287.434753,263.080658 
	C288.488678,262.188843 289.362518,262.338623 288.718231,263.467163 
	C288.107147,264.537415 288.071014,265.601929 287.446259,266.782440 
z"/>
<path fill="#FFFFFF" opacity="1.000000" stroke="none" 
	d="
M497.827942,142.644379 
	C497.881104,142.972046 497.416199,143.004578 497.197998,143.086456 
	C496.266785,143.538895 495.501282,143.488907 494.379761,143.310394 
	C494.022614,143.172562 493.579651,143.007889 493.344147,142.987091 
	C494.407471,140.906937 496.083191,141.554962 497.827942,142.644379 
z"/>
<path fill="#0E1CA2" opacity="1.000000" stroke="none" 
	d="
M334.863647,154.525940 
	C333.730743,153.244492 333.894135,151.464233 334.607910,149.375305 
	C334.841064,150.765640 334.888550,152.439163 334.863647,154.525940 
z"/>
<path fill="#818BD8" opacity="1.000000" stroke="none" 
	d="
M53.578651,203.177399 
	C52.176624,204.424301 50.219257,203.944733 47.964470,203.360687 
	C49.482685,203.119141 51.307404,203.121674 53.578651,203.177399 
z"/>
<path fill="#E4EAFF" opacity="1.000000" stroke="none" 
	d="
M236.383347,211.332245 
	C236.046555,209.538712 236.073288,207.494339 236.420013,205.160400 
	C236.742294,206.941025 236.744583,209.011215 236.383347,211.332245 
z"/>
<path fill="#E3E7FF" opacity="1.000000" stroke="none" 
	d="
M235.939789,169.261230 
	C235.932755,168.724808 235.995255,168.551865 236.012772,168.105881 
	C236.976578,169.176666 238.011627,170.513962 236.929810,172.649628 
	C235.480484,172.087128 236.273514,170.734787 235.939789,169.261230 
z"/>
<path fill="#B0B8F5" opacity="1.000000" stroke="none" 
	d="
M253.857361,168.148102 
	C254.114487,170.112503 253.928452,172.003555 253.387817,174.130386 
	C253.160217,172.269028 253.287201,170.171875 253.857361,168.148102 
z"/>
<path fill="#E9E9FF" opacity="1.000000" stroke="none" 
	d="
M142.689972,261.927490 
	C143.031586,263.209442 143.037186,264.710144 143.014832,266.660034 
	C141.232971,265.651642 142.194748,263.847809 142.689972,261.927490 
z"/>
<path fill="#2A3AC1" opacity="1.000000" stroke="none" 
	d="
M141.033539,161.730927 
	C141.982437,163.088501 141.219025,163.731201 139.471710,164.033203 
	C139.677704,163.338089 140.240829,162.614166 141.033539,161.730927 
z"/>
<path fill="#283BC7" opacity="1.000000" stroke="none" 
	d="
M381.054871,164.920410 
	C383.493652,165.501160 382.020569,166.560989 380.739380,167.601059 
	C379.606720,166.551086 380.548462,165.975723 381.054871,164.920410 
z"/>
<path fill="#6E7BAE" opacity="1.000000" stroke="none" 
	d="
M236.920929,280.267151 
	C237.023636,278.801147 237.243622,277.711792 237.629303,276.325806 
	C237.181747,277.508148 239.231140,279.423828 236.920929,280.267151 
z"/>
<path fill="#C4CBF5" opacity="1.000000" stroke="none" 
	d="
M361.860779,274.670593 
	C360.516571,273.807556 361.120453,272.375031 361.624329,270.786224 
	C363.975311,271.816772 360.989471,273.073364 361.860779,274.670593 
z"/>
<path fill="#8287D6" opacity="1.000000" stroke="none" 
	d="
M446.795288,207.325470 
	C446.364594,207.118881 446.017792,206.595612 445.510986,205.887817 
	C445.271301,205.373093 445.191650,205.042923 445.052246,204.463516 
	C446.477325,204.567932 447.437775,205.275589 446.795288,207.325470 
z"/>
<path fill="#FFFFFF" opacity="1.000000" stroke="none" 
	d="
M481.378662,143.309555 
	C481.022095,143.171021 480.579865,143.006439 480.344727,142.985657 
	C481.406921,141.123306 483.185089,142.315475 484.824951,142.597824 
	C484.889465,142.967896 484.419586,143.007187 484.198608,143.089294 
	C483.264008,143.538025 482.499146,143.489090 481.378662,143.309555 
z"/>
<path fill="#3F4C9C" opacity="1.000000" stroke="none" 
	d="
M462.123505,142.723175 
	C462.162720,143.493378 462.097656,143.915939 461.981445,144.657516 
	C461.930267,144.976532 461.576385,145.326904 461.328247,145.347656 
	C461.080109,145.368423 460.731659,145.345200 460.573151,145.271881 
	C460.429871,143.962189 459.651459,142.274719 462.123505,142.723175 
z"/>
<path fill="#D2D6E4" opacity="1.000000" stroke="none" 
	d="
M353.492157,271.818848 
	C353.185974,270.842560 353.159485,269.753723 353.245911,268.267761 
	C353.427032,269.156616 355.894928,270.184296 353.492157,271.818848 
z"/>
<path fill="#B3BBFB" opacity="1.000000" stroke="none" 
	d="
M281.722717,211.294037 
	C281.894867,210.972351 282.020538,210.626434 282.014771,210.442505 
	C282.096527,210.011475 282.184113,209.764374 282.548828,209.796219 
	C283.073364,211.219131 282.644623,212.583084 283.829834,213.759995 
	C283.245300,213.897171 282.737701,213.671234 282.069702,213.209320 
	C281.612366,212.567673 281.492828,212.115112 281.722717,211.294037 
z"/>
<path fill="#C5C5EC" opacity="1.000000" stroke="none" 
	d="
M156.508713,275.676239 
	C156.225891,275.147888 156.242538,274.499725 156.256119,273.526276 
	C156.802628,273.266357 157.678009,273.143829 157.843475,273.430695 
	C158.450531,274.483215 157.484634,274.994629 156.508713,275.676239 
z"/>
<path fill="#ABAFF7" opacity="1.000000" stroke="none" 
	d="
M241.063171,275.349976 
	C242.181274,275.452057 241.790253,276.434448 241.879242,277.578369 
	C238.224747,278.454407 241.621521,276.325562 241.063171,275.349976 
z"/>
<path fill="#AFAFDE" opacity="1.000000" stroke="none" 
	d="
M353.535828,261.572052 
	C352.734802,262.061371 351.800568,262.210266 350.510071,262.393524 
	C350.357758,259.641876 352.283264,261.531372 353.535828,261.572052 
z"/>
<path fill="#142ECF" opacity="1.000000" stroke="none" 
	d="
M447.448181,240.900818 
	C448.095917,239.864105 449.244202,239.822983 450.702728,240.654236 
	C449.899780,240.889038 448.866730,240.916290 447.448181,240.900818 
z"/>
<path fill="#3543C1" opacity="1.000000" stroke="none" 
	d="
M233.410797,217.717224 
	C232.722855,217.716721 232.068527,217.726212 231.928482,217.462555 
	C231.562088,216.772720 232.205032,216.447540 232.988708,216.051483 
	C233.476425,215.992096 233.688065,216.022919 234.196777,216.176483 
	C234.790039,217.088806 234.041565,217.225189 233.410797,217.717224 
z"/>
<path fill="#1628AF" opacity="1.000000" stroke="none" 
	d="
M380.096375,167.803467 
	C380.188690,167.614639 380.499756,167.673965 380.627319,167.757935 
	C380.890320,168.705185 380.743561,169.452057 379.611816,170.006226 
	C379.549744,169.397736 379.776917,168.695023 380.096375,167.803467 
z"/>
<path fill="#3F4CC8" opacity="1.000000" stroke="none" 
	d="
M216.937408,151.387451 
	C216.637070,151.795074 216.269196,152.293015 215.969208,152.255020 
	C215.418381,152.185226 215.428436,151.663498 215.885117,151.011658 
	C216.421005,150.845657 216.689407,150.985641 216.937408,151.387451 
z"/>
<path fill="#272E90" opacity="1.000000" stroke="none" 
	d="
M283.058533,198.865875 
	C282.596466,198.993240 282.405334,198.993027 281.927246,198.956360 
	C281.844147,198.400772 282.047943,197.881653 282.460602,197.177307 
	C283.573761,197.315521 283.989319,197.823685 283.058533,198.865875 
z"/>
<path fill="#434FAD" opacity="1.000000" stroke="none" 
	d="
M334.797760,218.693817 
	C334.507263,218.251511 334.273407,217.440903 334.048645,216.307129 
	C334.221527,215.786484 334.385284,215.588989 334.693481,215.748215 
	C334.843445,216.845108 334.848938,217.585297 334.797760,218.693817 
z"/>
<path fill="#3045D9" opacity="1.000000" stroke="none" 
	d="
M465.553772,143.259216 
	C465.178741,143.955978 464.388153,144.083755 463.315704,143.512482 
	C463.810150,143.299942 464.509430,143.243561 465.553772,143.259216 
z"/>
<path fill="#6E7BAE" opacity="1.000000" stroke="none" 
	d="
M237.849045,270.674744 
	C237.119614,270.344391 237.161362,269.548431 237.612030,268.536621 
	C237.807419,269.022156 237.832184,269.682098 237.849045,270.674744 
z"/>
<path fill="#818BD8" opacity="1.000000" stroke="none" 
	d="
M41.913212,203.112305 
	C41.739758,203.907532 40.953228,203.874207 39.895142,203.346039 
	C40.273819,203.112854 40.870205,203.108871 41.913212,203.112305 
z"/>
<path fill="#3F4C9C" opacity="1.000000" stroke="none" 
	d="
M488.355103,169.698792 
	C488.564453,169.541809 489.091217,169.451950 489.787323,169.497589 
	C489.528625,169.677338 489.100586,169.721619 488.355103,169.698792 
z"/>
<path fill="#272E90" opacity="1.000000" stroke="none" 
	d="
M334.863922,215.793915 
	C334.837952,216.104919 334.449799,216.028214 334.253784,216.006104 
	C333.998566,215.611145 333.939362,215.238297 333.848511,214.584106 
	C334.625366,214.286270 334.821838,214.826202 334.863922,215.793915 
z"/>
<path fill="#272E90" opacity="1.000000" stroke="none" 
	d="
M282.831512,209.741058 
	C282.826019,210.075165 282.404694,210.106216 282.206848,210.182404 
	C282.085236,209.695343 282.161499,209.132111 282.401001,208.339050 
	C282.655182,208.541809 282.746094,208.974396 282.831512,209.741058 
z"/>
<path fill="#6E7BAE" opacity="1.000000" stroke="none" 
	d="
M237.816498,272.783112 
	C237.510330,272.814392 237.436218,272.544495 237.703094,272.124634 
	C237.823776,272.191467 237.825272,272.360565 237.816498,272.783112 
z"/>
<path fill="#3F4C9C" opacity="1.000000" stroke="none" 
	d="
M460.364105,152.229553 
	C460.527039,152.246307 460.619446,152.528610 460.583038,152.915756 
	C460.400665,152.845428 460.347137,152.670258 460.364105,152.229553 
z"/>
<path fill="#272E90" opacity="1.000000" stroke="none" 
	d="
M329.753418,214.292252 
	C329.999725,214.345642 329.646484,214.595474 329.646484,214.595474 
	C329.646484,214.595474 329.220886,214.551147 329.117188,214.445908 
	C329.178070,214.306732 329.342621,214.272797 329.753418,214.292252 
z"/>
<path fill="#5D69CC" opacity="1.000000" stroke="none" 
	d="
M271.007935,153.997925 
	C271.111603,153.658951 271.284912,153.377213 271.701935,153.021011 
	C271.945648,152.946548 272.059387,153.092743 272.112732,153.168457 
	C272.077423,153.468414 271.988739,153.692627 271.560303,154.040924 
	C271.220581,154.165009 271.077606,154.055145 271.007935,153.997925 
z"/>
<path fill="#2A3AC1" opacity="1.000000" stroke="none" 
	d="
M133.699310,177.025513 
	C134.000427,177.151367 134.007843,177.324432 134.004745,177.757874 
	C133.568863,177.845749 132.668884,177.968704 133.699310,177.025513 
z"/>
<path fill="#949DD1" opacity="1.000000" stroke="none" 
	d="
M58.194855,211.265411 
	C57.778664,211.135513 57.684677,210.817337 57.732437,210.021362 
	C58.334217,209.951736 59.424076,210.095886 58.194855,211.265411 
z"/>
<path fill="#B0B8F5" opacity="1.000000" stroke="none" 
	d="
M252.815063,174.687225 
	C253.193390,174.750824 253.347870,175.028381 253.218201,175.688416 
	C252.210312,175.859589 251.880981,175.532700 252.815063,174.687225 
z"/>
<path fill="#3F4C9C" opacity="1.000000" stroke="none" 
	d="
M459.612549,154.942490 
	C459.889740,155.094421 459.862091,155.296082 459.876770,155.800095 
	C459.246368,155.990616 458.732849,155.791092 459.612549,154.942490 
z"/>
<path fill="#0E1CA2" opacity="1.000000" stroke="none" 
	d="
M334.811859,158.700653 
	C334.519684,158.734390 334.459656,158.510910 334.678772,158.153442 
	C334.774902,158.065948 334.860992,158.489975 334.811859,158.700653 
z"/>
<path fill="#272E90" opacity="1.000000" stroke="none" 
	d="
M327.079529,213.634155 
	C326.940887,213.944305 326.721039,213.965317 326.170471,213.954834 
	C326.020111,213.318207 326.233734,212.779678 327.079529,213.634155 
z"/>
<path fill="#272E90" opacity="1.000000" stroke="none" 
	d="
M318.064240,213.639862 
	C317.924622,213.953873 317.713623,213.977737 317.184937,213.966522 
	C317.026855,213.320282 317.223938,212.781754 318.064240,213.639862 
z"/>
<path fill="#272E90" opacity="1.000000" stroke="none" 
	d="
M316.065216,213.643372 
	C315.926636,213.962830 315.714020,213.983673 315.181915,213.974319 
	C314.962616,213.224487 315.222748,212.806046 316.065216,213.643372 
z"/>
<path fill="#2A3AC1" opacity="1.000000" stroke="none" 
	d="
M142.929214,161.021393 
	C143.075012,161.034271 143.165817,161.403702 143.165817,161.403702 
	C143.165817,161.403702 142.782394,161.422363 142.669067,161.307404 
	C142.555740,161.192459 142.783417,161.008499 142.929214,161.021393 
z"/>
<path fill="#272E90" opacity="1.000000" stroke="none" 
	d="
M309.088562,213.656372 
	C308.946930,213.981461 308.724152,214.010300 308.166443,213.996094 
	C308.012665,213.337280 308.220886,212.775208 309.088562,213.656372 
z"/>
<path fill="#3F4C9C" opacity="1.000000" stroke="none" 
	d="
M506.832672,170.242279 
	C507.000153,169.871017 507.261322,169.844009 507.913635,169.868622 
	C508.048309,170.562332 507.871918,171.370071 506.832672,170.242279 
z"/>
<path fill="#3F4C9C" opacity="1.000000" stroke="none" 
	d="
M493.826965,170.242615 
	C494.013611,169.855011 494.257324,169.825012 494.867065,169.838333 
	C495.037048,170.597397 494.862000,171.352585 493.826965,170.242615 
z"/>
<path fill="#6E7BAE" opacity="1.000000" stroke="none" 
	d="
M238.247498,275.267334 
	C237.818756,275.097534 237.743530,274.799194 237.782715,274.053101 
	C238.515259,273.940460 239.402237,274.152161 238.247498,275.267334 
z"/>
<path fill="#3F4C9C" opacity="1.000000" stroke="none" 
	d="
M490.848267,170.233063 
	C491.011200,169.856567 491.255585,169.827850 491.866882,169.841614 
	C492.036560,170.560791 491.909241,171.368347 490.848267,170.233063 
z"/>
<path fill="#272E90" opacity="1.000000" stroke="none" 
	d="
M305.084534,213.656296 
	C304.943268,213.981216 304.722809,214.010239 304.170776,213.996429 
	C304.014954,213.337143 304.218933,212.776260 305.084534,213.656296 
z"/>
<path fill="#272E90" opacity="1.000000" stroke="none" 
	d="
M286.061707,213.665192 
	C285.915680,213.990738 285.706818,214.018326 285.183899,214.003479 
	C285.020844,213.334671 285.211060,212.782837 286.061707,213.665192 
z"/>
<path fill="#3F4C9C" opacity="1.000000" stroke="none" 
	d="
M485.849365,170.233185 
	C486.012421,169.857101 486.256134,169.828751 486.865723,169.842560 
	C487.035889,170.562012 486.909241,171.368454 485.849365,170.233185 
z"/>
<path fill="#3F4C9C" opacity="1.000000" stroke="none" 
	d="
M474.849091,170.233078 
	C475.011627,169.856842 475.254974,169.828339 475.863770,169.841690 
	C476.035553,170.562164 475.910309,171.368286 474.849091,170.233078 
z"/>
<path fill="#949DD1" opacity="1.000000" stroke="none" 
	d="
M62.291832,213.772324 
	C62.164257,214.215149 61.823875,214.356003 60.977951,214.272644 
	C60.933529,213.648941 61.156734,212.588242 62.291832,213.772324 
z"/>
<path fill="#1127BC" opacity="1.000000" stroke="none" 
	d="
M110.756683,149.663803 
	C110.491722,149.700348 110.436058,149.537216 110.620026,149.272034 
	C110.705711,149.223328 110.812065,149.517517 110.756683,149.663803 
z"/>
<path fill="#262F88" opacity="1.000000" stroke="none" 
	d="
M288.036377,240.359360 
	C288.208954,240.019485 288.396515,239.980484 288.870361,239.965149 
	C289.031311,240.612808 288.869202,241.176300 288.036377,240.359360 
z"/>
<path fill="#262F88" opacity="1.000000" stroke="none" 
	d="
M299.928284,240.332291 
	C300.075012,240.005936 300.287231,239.980606 300.818420,239.993134 
	C300.987244,240.670425 300.788452,241.217468 299.928284,240.332291 
z"/>
<path fill="#262F88" opacity="1.000000" stroke="none" 
	d="
M307.925964,240.331421 
	C308.073792,240.005035 308.287781,239.980225 308.823242,239.993408 
	C308.989075,240.669739 308.786865,241.218842 307.925964,240.331421 
z"/>
<path fill="#262F88" opacity="1.000000" stroke="none" 
	d="
M309.921509,240.331635 
	C310.068665,240.005112 310.284668,239.980438 310.825073,239.993103 
	C310.990936,240.669464 310.786072,241.219406 309.921509,240.331635 
z"/>
<path fill="#262F88" opacity="1.000000" stroke="none" 
	d="
M319.948792,240.346985 
	C320.093994,240.031769 320.297363,240.011063 320.806854,240.022675 
	C320.973724,240.683105 320.782196,241.212692 319.948792,240.346985 
z"/>
<path fill="#818BD8" opacity="1.000000" stroke="none" 
	d="
M36.967667,203.124420 
	C36.951900,203.257141 36.676121,203.393311 36.299347,203.381317 
	C36.368118,203.198074 36.537888,203.162979 36.967667,203.124420 
z"/>
<path fill="#272E90" opacity="1.000000" stroke="none" 
	d="
M283.484192,203.038116 
	C283.234558,202.909775 283.243042,202.704559 283.240173,202.191971 
	C283.806000,202.049820 284.200073,202.302383 283.484192,203.038116 
z"/>
<path fill="#818BD8" opacity="1.000000" stroke="none" 
	d="
M47.270294,202.780701 
	C47.142773,203.194855 46.822113,203.294769 46.019638,203.245270 
	C45.947277,202.632523 46.119686,201.589462 47.270294,202.780701 
z"/>
<path fill="#818BD8" opacity="1.000000" stroke="none" 
	d="
M44.270550,202.782684 
	C44.142593,203.197220 43.821655,203.296860 43.018646,203.247040 
	C42.946877,202.634750 43.118793,201.588654 44.270550,202.782684 
z"/>
<path fill="#3F4C9C" opacity="1.000000" stroke="none" 
	d="
M459.596680,149.936707 
	C459.863525,150.085846 459.829895,150.292664 459.847809,150.809433 
	C459.243835,150.988052 458.726227,150.782776 459.596680,149.936707 
z"/>
<path fill="#818BD8" opacity="1.000000" stroke="none" 
	d="
M39.271210,202.780289 
	C39.143673,203.191269 38.823009,203.289337 38.021164,203.238434 
	C37.948505,202.624542 38.127522,201.592194 39.271210,202.780289 
z"/>
<path fill="#47509E" opacity="1.000000" stroke="none" 
	d="
M201.410782,143.797913 
	C201.137146,143.840210 200.797684,143.745041 200.252991,143.485977 
	C200.235168,143.298264 200.422546,143.274445 200.879562,143.338715 
	C201.149200,143.426804 201.344955,143.660461 201.410782,143.797913 
z"/>
<path fill="#B0B8F5" opacity="1.000000" stroke="none" 
	d="
M252.778595,198.704285 
	C253.227356,198.807358 253.409637,199.153625 253.318329,200.019470 
	C252.745407,200.049286 251.618164,199.836578 252.778595,198.704285 
z"/>
<path fill="#4659E7" opacity="1.000000" stroke="none" 
	d="
M519.963135,145.723907 
	C519.694397,145.916153 519.419800,145.757019 519.053589,145.325378 
	C519.252380,145.230835 519.584106,145.337387 519.963135,145.723907 
z"/>
<path fill="#3F4C9C" opacity="1.000000" stroke="none" 
	d="
M460.363068,163.292297 
	C460.669067,163.234436 460.748505,163.439438 460.554871,163.787109 
	C460.456390,163.861038 460.311157,163.486374 460.363068,163.292297 
z"/>
<path fill="#434FAD" opacity="1.000000" stroke="none" 
	d="
M335.231018,225.196198 
	C334.852325,225.044983 334.813202,224.775574 334.833252,224.101456 
	C335.523834,223.958176 336.370056,224.114166 335.231018,225.196198 
z"/>
<path fill="#2A3AC1" opacity="1.000000" stroke="none" 
	d="
M138.816803,164.183701 
	C138.996323,164.432465 138.847977,164.688248 138.416519,165.003159 
	C138.137894,164.739960 138.256409,164.449448 138.816803,164.183701 
z"/>
<path fill="#434FAD" opacity="1.000000" stroke="none" 
	d="
M334.764160,222.755615 
	C334.452942,222.791794 334.381714,222.523987 334.619934,222.097321 
	C334.751099,222.156784 334.776001,222.327850 334.764160,222.755615 
z"/>
<path fill="#333FA6" opacity="1.000000" stroke="none" 
	d="
M255.769897,167.124542 
	C256.062805,167.245117 256.115356,167.414017 256.247925,167.835892 
	C256.327972,168.088852 255.951340,168.399994 255.707886,168.419891 
	C255.464417,168.439789 255.203827,168.190063 255.074463,168.064087 
	C255.037170,167.604538 255.231964,167.349442 255.769897,167.124542 
z"/>
<path fill="#434FAD" opacity="1.000000" stroke="none" 
	d="
M335.232147,221.189453 
	C334.849121,221.035248 334.807068,220.765533 334.826050,220.090210 
	C335.511017,219.952545 336.368286,220.105286 335.232147,221.189453 
z"/>
<path fill="#1127BC" opacity="1.000000" stroke="none" 
	d="
M110.731964,152.718567 
	C110.437317,152.750793 110.376328,152.535812 110.585213,152.195068 
	C110.680840,152.116623 110.791374,152.518707 110.731964,152.718567 
z"/>
<path fill="#132DD3" opacity="1.000000" stroke="none" 
	d="
M82.066589,161.301575 
	C90.782257,162.196106 99.462875,163.576859 108.571335,164.966431 
	C109.739349,173.937531 107.608650,182.790680 107.978310,191.741226 
	C108.040924,193.257416 107.904922,194.841171 106.285332,195.579483 
	C104.515800,196.386169 103.025337,195.624130 101.841324,194.307083 
	C98.439629,190.523224 93.801208,190.503860 89.438065,190.811539 
	C85.174835,191.112137 83.593666,189.768387 82.859764,185.585663 
	C81.467339,177.649780 82.280785,169.716415 82.066589,161.301575 
z"/>
<path fill="#132DD3" opacity="1.000000" stroke="none" 
	d="
M81.378761,159.014206 
	C81.112175,155.997696 81.076126,152.975815 81.081940,149.503937 
	C82.846260,151.924805 81.721977,155.096512 82.075699,158.554535 
	C82.070374,158.997620 81.609306,159.008820 81.378761,159.014206 
z"/>
<path fill="#2739BE" opacity="1.000000" stroke="none" 
	d="
M515.707581,215.019318 
	C516.034180,215.464386 516.032776,215.892975 516.054199,216.644287 
	C515.151001,216.934952 514.464050,216.565720 514.125488,215.313904 
	C514.505005,215.003647 514.942261,215.003250 515.707581,215.019318 
z"/>
<path fill="#171717" opacity="1.000000" stroke="none" 
	d="
M163.194000,183.414474 
	C163.196152,182.016769 164.958267,181.108749 163.227982,179.314499 
	C163.850388,177.574646 162.774490,176.367691 162.871155,174.796814 
	C162.747650,174.273087 162.690491,174.065414 162.703339,173.542297 
	C163.120193,173.038864 163.467010,172.850861 163.879196,172.074722 
	C163.753860,171.477432 163.563156,171.468262 163.196960,171.232788 
	C162.947678,170.847015 162.873917,170.687561 162.804779,170.266632 
	C175.341675,169.990585 187.874069,170.000290 200.406174,169.946701 
	C204.167099,169.930634 206.497360,171.190048 206.224350,175.435593 
	C205.768082,182.530594 206.534439,189.666916 205.492020,196.752930 
	C205.337891,197.800644 205.867920,198.949005 206.210739,200.526428 
	C207.057358,202.029251 207.327057,203.121323 206.632263,204.723587 
	C206.401596,206.145401 206.360245,207.169342 206.350937,208.576965 
	C206.603256,210.350586 207.190125,211.739471 206.055252,213.394302 
	C200.980698,214.712387 196.155426,214.449692 191.445801,213.927078 
	C189.150681,213.672394 187.071655,213.607819 184.427017,214.304596 
	C182.366409,215.613113 180.651917,216.092133 178.314972,215.156418 
	C173.717041,212.724792 168.994492,215.067627 164.386002,213.132233 
	C161.532837,209.869614 163.332245,206.747940 163.838455,203.718063 
	C164.041977,202.499939 164.178787,201.505386 163.268799,200.226471 
	C163.722946,194.475861 163.457413,189.092728 163.194000,183.414474 
z"/>
<path fill="#3543C1" opacity="1.000000" stroke="none" 
	d="
M206.835617,205.088074 
	C206.375977,204.023712 206.309021,202.925949 206.291077,201.415100 
	C209.623749,198.208664 207.739410,194.474716 207.868378,191.226379 
	C208.013351,187.574478 208.757782,185.893127 212.908524,185.869431 
	C218.161118,185.839462 223.414093,184.918106 228.656036,184.290421 
	C232.835266,183.789993 234.653503,185.397949 234.708649,189.739990 
	C234.769653,194.542404 234.891510,199.344040 234.934845,204.617493 
	C227.990906,206.362915 221.312210,203.706207 214.460358,203.976456 
	C211.984070,204.074127 209.573044,204.244095 206.835617,205.088074 
z"/>
<path fill="#272E90" opacity="1.000000" stroke="none" 
	d="
M281.692017,211.173126 
	C281.932953,211.418381 281.971039,211.864395 281.959198,212.641891 
	C281.909271,212.973358 281.457947,212.988968 281.232239,212.988419 
	C281.167389,212.449875 281.328247,211.911880 281.692017,211.173126 
z"/>
<path fill="#3045D9" opacity="1.000000" stroke="none" 
	d="
M494.234985,143.356110 
	C494.763306,143.132477 495.504028,143.092392 496.612274,143.110321 
	C496.224579,143.898331 495.387177,144.068176 494.234985,143.356110 
z"/>
<path fill="#3045D9" opacity="1.000000" stroke="none" 
	d="
M481.234100,143.354523 
	C481.762482,143.131729 482.502869,143.092422 483.610413,143.112274 
	C483.221130,143.896881 482.384064,144.065704 481.234100,143.354523 
z"/>
<path fill="#3045D9" opacity="1.000000" stroke="none" 
	d="
M461.207886,145.416565 
	C461.080109,145.368423 461.484131,145.125351 461.707214,145.050934 
	C461.838348,145.283554 461.640137,145.446274 461.207886,145.416565 
z"/>
<path fill="#5564E4" opacity="1.000000" stroke="none" 
	d="
M411.291168,166.861237 
	C410.585663,164.749008 408.484955,164.544403 406.835754,164.172714 
	C401.061096,162.871185 395.853973,159.748291 389.922760,159.005219 
	C386.475220,158.573288 386.142151,156.751999 387.196075,153.773636 
	C390.642181,144.034561 390.571777,144.019760 400.865234,143.994934 
	C406.657318,143.980972 412.449371,143.927048 418.723907,143.819565 
	C420.219025,144.689011 420.121216,145.837265 419.682465,146.953873 
	C417.086609,153.560226 414.937012,160.351562 411.291168,166.861237 
z"/>
<path fill="#6472E6" opacity="1.000000" stroke="none" 
	d="
M255.332092,168.845062 
	C255.464417,168.439789 255.882721,168.238358 256.105347,168.163605 
	C262.184479,164.729584 266.856750,160.062836 271.107391,154.485275 
	C271.429199,153.958481 271.638519,153.752655 272.007294,153.395874 
	C276.676025,152.668564 278.248047,148.031052 282.154602,146.147552 
	C282.965454,153.796310 283.255096,161.521088 282.058868,169.628708 
	C282.003204,170.898193 281.981812,171.780319 282.352478,172.942200 
	C282.482880,173.700775 282.460815,174.139771 282.079346,174.716202 
	C281.058807,177.505569 279.994690,178.655121 276.639557,178.179077 
	C269.723114,177.197723 262.810638,178.586060 255.584579,179.880875 
	C255.195251,176.335953 255.197510,172.793152 255.332092,168.845062 
z"/>
<path fill="#4352D5" opacity="1.000000" stroke="none" 
	d="
M282.086975,173.336792 
	C281.066193,172.210388 280.918671,171.347198 281.719727,170.213135 
	C282.125793,170.032333 282.314270,170.037796 282.781128,170.090012 
	C283.044739,170.841568 283.029999,171.546387 282.930817,172.594391 
	C282.687653,173.181168 282.528961,173.424728 282.086975,173.336792 
z"/>
<path fill="#87CEFF" opacity="1.000000" stroke="none" 
	d="
M162.927734,183.338074 
	C163.608353,183.171890 164.890945,182.474365 164.527084,183.958237 
	C163.283951,189.027969 164.204300,194.169388 163.567047,199.557251 
	C163.148285,194.878128 163.002655,189.903488 162.825577,184.458847 
	C162.794144,183.988861 162.905487,183.558990 162.927734,183.338074 
z"/>
<path fill="#D1D5FF" opacity="1.000000" stroke="none" 
	d="
M164.026398,213.157730 
	C168.589828,212.975937 173.139938,213.104034 177.755676,213.667938 
	C177.559494,214.223831 177.297653,214.343918 176.604004,214.479462 
	C172.715225,214.486481 169.258148,214.532394 165.384155,214.355835 
	C164.649002,213.984497 164.331024,213.726044 164.026398,213.157730 
z"/>
<path fill="#1A27A4" opacity="1.000000" stroke="none" 
	d="
M164.987427,214.399292 
	C168.707397,214.203430 172.447830,214.163895 176.654678,214.173523 
	C177.183212,214.440002 177.245316,214.657318 177.107147,215.148193 
	C173.242416,215.268219 169.577988,215.114700 165.453537,214.915894 
	C164.993530,214.870621 165.007889,214.555618 164.987427,214.399292 
z"/>
<path fill="#2A3AC1" opacity="1.000000" stroke="none" 
	d="
M176.910797,215.795914 
	C176.940659,215.221664 176.974442,215.021591 177.064667,214.522095 
	C177.121109,214.222672 177.460129,214.094147 177.640717,214.098938 
	C179.573746,214.168900 181.326157,214.234070 183.511826,214.351562 
	C184.593185,215.927475 185.972794,216.139877 187.289474,215.936874 
	C191.527145,215.283493 192.805008,218.138443 192.681366,221.226166 
	C192.480942,226.231079 191.520660,231.208221 190.819168,236.188370 
	C190.660645,237.313828 189.761826,237.883881 188.678894,237.900925 
	C185.030960,237.958359 181.527191,239.491928 177.379868,238.874969 
	C175.640778,231.266220 176.806213,223.717697 176.910797,215.795914 
z"/>
<path fill="#1D2BA9" opacity="1.000000" stroke="none" 
	d="
M206.021362,213.756638 
	C205.875092,212.347824 206.034286,211.039291 206.288223,209.345703 
	C206.638672,209.113068 206.835098,209.321396 207.063080,209.783356 
	C207.552185,210.718430 207.494629,211.514084 207.279755,212.666794 
	C207.108124,213.025681 207.048019,213.512512 207.001526,213.753281 
	C206.745621,213.948334 206.536209,213.902618 206.021362,213.756638 
z"/>
<path fill="#3543C1" opacity="1.000000" stroke="none" 
	d="
M207.309906,212.815948 
	C207.084686,212.262787 207.061234,211.499908 207.095856,210.359039 
	C207.935104,210.765900 208.040115,211.642899 207.309906,212.815948 
z"/>
<path fill="#0D1FAC" opacity="1.000000" stroke="none" 
	d="
M333.782227,231.201508 
	C333.984558,231.746582 333.987274,232.505157 333.967194,233.642670 
	C333.189728,233.240753 332.957489,232.387360 333.782227,231.201508 
z"/>
<path fill="#0D1FAC" opacity="1.000000" stroke="none" 
	d="
M332.828003,238.179001 
	C332.900452,238.365341 332.695953,238.600204 332.217621,238.887299 
	C332.140594,238.698578 332.343018,238.461227 332.828003,238.179001 
z"/>
<path fill="#0D1FAC" opacity="1.000000" stroke="none" 
	d="
M334.075134,237.773102 
	C333.944611,238.040009 333.772400,238.052277 333.341949,238.072418 
	C333.180817,237.773438 333.346619,237.509750 333.769043,237.148682 
	C333.982452,237.178238 334.007904,237.348343 334.075134,237.773102 
z"/>
<path fill="#343DA4" opacity="1.000000" stroke="none" 
	d="
M281.822693,173.314377 
	C281.977570,172.996231 282.151459,172.987167 282.585876,172.957840 
	C282.891785,176.660980 282.937195,180.384384 282.905640,184.564255 
	C282.690948,185.220001 282.553253,185.419281 282.223236,185.310257 
	C281.997833,181.929367 281.964691,178.856796 281.854919,175.320374 
	C281.799438,174.445511 281.820587,174.034485 281.822693,173.314377 
z"/>
<path fill="#272E90" opacity="1.000000" stroke="none" 
	d="
M282.012207,185.439453 
	C282.030945,185.001953 282.429749,185.013565 282.629211,185.017151 
	C282.882629,187.746841 282.936554,190.472946 282.950684,193.663300 
	C281.048950,191.550369 282.303345,188.626694 282.012207,185.439453 
z"/>
<path fill="#2A3AC1" opacity="1.000000" stroke="none" 
	d="
M162.575317,173.261108 
	C162.773361,173.226868 162.957016,173.651031 163.016205,173.874451 
	C163.697937,175.143921 163.503494,176.277573 163.156372,177.722656 
	C161.913803,177.091095 162.045258,175.831329 161.893921,174.268829 
	C161.974365,173.656830 162.151581,173.454819 162.575317,173.261108 
z"/>
<path fill="#2A3AC1" opacity="1.000000" stroke="none" 
	d="
M163.249512,171.131729 
	C163.339264,170.895508 163.616714,170.963135 163.899170,171.347977 
	C163.788895,171.410049 163.633224,171.333511 163.249512,171.131729 
z"/>
<path fill="#2739BE" opacity="1.000000" stroke="none" 
	d="
M508.481262,234.512711 
	C508.470245,234.486832 508.492249,234.538589 508.481262,234.512711 
z"/>
<path fill="#FFFFFF" opacity="1.000000" stroke="none" 
	d="
M162.963104,178.241074 
	C162.927139,176.993317 162.970749,175.939667 163.044876,174.491943 
	C163.924164,175.565170 165.360458,176.952789 163.394913,178.806168 
	C163.082031,178.852890 163.042664,178.435181 162.963104,178.241074 
z"/>
<path fill="#000000" opacity="1.000000" stroke="none" 
	d="
M348.409943,270.892395 
	C346.833191,272.564423 345.591095,272.195312 344.472595,270.893036 
	C343.784302,270.091705 344.186371,269.263489 344.908875,268.844666 
	C345.920471,268.258240 346.865753,267.118408 348.305023,268.055359 
	C349.489380,268.826385 349.886139,269.611084 348.409943,270.892395 
z"/>
<path fill="#000000" opacity="1.000000" stroke="none" 
	d="
M347.632629,283.066742 
	C346.433380,282.934021 344.942963,283.205536 345.505402,281.711029 
	C345.828125,280.853546 347.042786,279.862549 348.221161,280.960144 
	C348.906891,281.598907 350.478790,282.666840 347.632629,283.066742 
z"/>
<path fill="#000000" opacity="1.000000" stroke="none" 
	d="
M327.989258,275.458984 
	C329.102692,273.017578 331.080780,274.111664 332.783539,273.918304 
	C331.922302,276.508514 330.028381,276.211731 327.989258,275.458984 
z"/>
<path fill="#000000" opacity="1.000000" stroke="none" 
	d="
M249.670380,275.100525 
	C248.957504,276.174377 248.435211,277.538757 247.065247,276.279083 
	C246.438370,275.702698 245.944748,274.935577 246.554123,274.206787 
	C247.818298,272.694946 248.674316,274.283417 249.670380,275.100525 
z"/>
<path fill="#000000" opacity="1.000000" stroke="none" 
	d="
M375.303955,273.239380 
	C377.649658,273.761017 377.323853,274.908630 376.035339,275.809296 
	C375.426605,276.234802 374.447510,277.545441 373.577332,276.337677 
	C372.467834,274.797729 373.818298,274.038818 375.303955,273.239380 
z"/>
<path fill="#121212" opacity="1.000000" stroke="none" 
	d="
M176.783844,276.245331 
	C176.011871,277.153046 175.287354,276.996155 174.566910,276.519165 
	C175.276001,276.160950 175.885757,275.413483 176.783844,276.245331 
z"/>
</svg>